<svg class="svg__img svg__color home__img" xmlns="http://www.w3.org/2000/svg" viewBox="0 0 865.76 682.89"><path d="M767.66,504.72A288.56,288.56,0,0,1,725,543.88c-68.46,51.34-140.86,60-140.86,60-39.16,6.32-122,3.73-122,3.73-112-1.26-112.61,2-112.61,2-42.19,4.9-90.76,1.88-90.76,1.88-85.86-11.3-156.91-69.86-156.91-69.86-1.29-1.2-2.54-2.41-3.78-3.61C-12.27,430.65,48.38,313.32,48.38,313.32,86.58,243.68,184.17,218,184.17,218c100.94-30.88,129.26-63.37,129.26-63.37,35.36-34.24,66-49.24,66-49.24,161-82.49,316.41,13.19,316.41,13.19,110.46,62.27,136.82,210.87,136.82,210.87C845,424.32,767.66,504.72,767.66,504.72Z" fill="#8100f2"/><path d="M767.66,504.72Q760,513.35,752,521q-6.88,6.6-14,12.53-6.46,5.44-13,10.35-6.74,5-13.5,9.55c-7,4.69-14,9-20.93,12.83l-2.1,1.17q-3.51,1.94-7,3.75c-8.67,4.52-17.13,8.44-25.2,11.82l-.35.15c-6.15,2.58-12.08,4.85-17.72,6.85-31.67,11.23-54.07,13.93-54.07,13.93-39.17,6.32-122,3.73-122,3.73-112-1.26-112.61,2-112.61,2-22.46,2.6-46.73,3-64.51,2.74-2.6,0-5.07-.08-7.37-.14-11.49-.26-18.87-.72-18.87-.72a250.17,250.17,0,0,1-30.67-6.06c-2.36-.61-4.69-1.25-7-1.93a308.29,308.29,0,0,1-31.34-10.95l-.16-.07c-7.43-3-14.54-6.25-21.26-9.54a394.17,394.17,0,0,1-39.43-22.16c-3.74-2.39-7.14-4.66-10.17-6.74-10.78-7.39-16.88-12.41-16.88-12.41-1.28-1.2-2.54-2.41-3.78-3.61C-12.26,430.64,48.39,313.31,48.39,313.31c30-54.72,96.69-82.29,123.89-91.59,7.42-2.54,11.9-3.72,11.9-3.72a583,583,0,0,0,60-21.75c52.7-22.69,69.2-41.62,69.2-41.62,35.36-34.24,66-49.24,66-49.24,161-82.49,316.41,13.19,316.41,13.19,110.47,62.26,136.83,210.87,136.83,210.87C845,424.32,767.66,504.72,767.66,504.72Z" fill="#fff" opacity="0.7"/><path d="M568.3,285.75A37.79,37.79,0,0,0,566.55,253l19-5.56L581.68,230l-16.46,4.42a37.68,37.68,0,0,0-54.2-46,48.14,48.14,0,0,0-91.66-16.34,37.63,37.63,0,0,0-35.18,8.24l-15.36-25.66-11.51,15.62,9.07,16.49H366a64.91,64.91,0,0,0-35.87,119c-17,5.55-29.24,22.2-29.24,41.87,0,24.21,18.63,43.84,41.63,43.84a40.31,40.31,0,0,0,7.25-.68c5.3,17.66,21,30.46,39.51,30.46a39.83,39.83,0,0,0,23.47-7.68,62.9,62.9,0,0,0,48.51,22.34c22.23,0,41.7-11.14,52.58-27.86l9.54,13.46L538,410.91l-15.78-24c.25-1.44.47-2.9.61-4.37A58.83,58.83,0,0,0,539.46,385c31,0,56.18-23.9,56.18-53.39C595.64,312.1,584.68,295.07,568.3,285.75Z" fill="#8100f2"/><path d="M752,359.83V521a291.14,291.14,0,0,1-27,22.88A328.46,328.46,0,0,1,638.21,590V359.83Z" fill="#8100f2"/><circle cx="523.41" cy="303.65" r="56.18" fill="#fff" opacity="0.5"/><circle cx="382.08" cy="276.08" r="45.36" fill="#fff" opacity="0.5"/><circle cx="433.73" cy="364.71" r="26.52" fill="#fff" opacity="0.5"/><circle cx="469.32" cy="202.1" r="22.33" fill="#fff" opacity="0.5"/><circle cx="608.55" cy="235.25" r="33.15" fill="#8100f2"/><circle cx="519.22" cy="279.92" r="21.29" fill="#fff" opacity="0.5"/><circle cx="464.78" cy="191.29" r="6.63" fill="#fff" opacity="0.5"/><circle cx="371.96" cy="252" r="12.21" fill="#fff" opacity="0.5"/><circle cx="355.91" cy="150.11" r="24.78" fill="#8100f2"/><rect x="638.21" y="359.83" width="113.76" height="16.75" opacity="0.2"/><polygon points="789.72 431.07 782.87 424.39 783.57 423.68 789.59 429.56 799.02 416.76 799.83 417.35 789.72 431.07" fill="#8100f2"/><path d="M461.44,490.84H438.11V467.5h23.33Zm-22.33-1h21.33V468.5H439.11Z" fill="#8100f2"/><polygon points="448.44 486.21 441.6 479.53 442.3 478.81 448.32 484.69 457.75 471.89 458.56 472.49 448.44 486.21" fill="#8100f2"/><path d="M318.72,128.28H300.63v-18.1h18.09Zm-17.09-1h16.09v-16.1H301.63Z" fill="#8100f2"/><polygon points="308.67 124.8 303.33 119.59 304.03 118.87 308.55 123.28 315.69 113.59 316.49 114.18 308.67 124.8" fill="#8100f2"/><path d="M444.89,202.1a74,74,0,1,0,74,74A74,74,0,0,0,444.89,202.1Zm0,140.28a66.3,66.3,0,1,1,66.3-66.3A66.3,66.3,0,0,1,444.89,342.38Z" fill="#5b5982"/><rect x="371.26" y="246.42" width="7.68" height="55.83" rx="3.84" transform="translate(649.44 -100.77) rotate(90)" fill="#5b5982"/><rect x="512.24" y="246.42" width="7.68" height="55.83" rx="3.84" transform="translate(790.42 -241.74) rotate(90)" fill="#5b5982"/><rect x="440.71" y="315.86" width="7.68" height="55.83" rx="3.84" transform="translate(889.09 687.55) rotate(180)" fill="#5b5982"/><rect x="440.71" y="179.86" width="7.68" height="55.83" rx="3.84" transform="translate(889.09 415.55) rotate(-180)" fill="#5b5982"/><circle cx="444.89" cy="273.99" r="20.24" fill="#5b5982"/><rect x="687.06" y="191.64" width="16.75" height="5.58" rx="2.79" fill="none" stroke="#fff" stroke-miterlimit="10" opacity="0.7"/><path d="M688.81,194.43v33s.35,3.31-2.44,4.7c0,0-20.94,9.08-18.15,28.62,0,0,2.79,16.75,15.35,19.54h23.18s13.81-.7,15.21-23.73c0,0,1.19-11.92-12.39-21.43a23.64,23.64,0,0,0-4.57-2.58,5.31,5.31,0,0,1-3.28-5.3v-32.8Z" fill="none" stroke="#fff" stroke-miterlimit="10" opacity="0.7"/><path d="M674.5,246.07h41.18s8.25,20.31-7.33,30.06a9.09,9.09,0,0,1-4.84,1.35H686.57a9.47,9.47,0,0,1-6-2.18C675.52,271.13,666.72,261.11,674.5,246.07Z" fill="none" stroke="#fff" stroke-miterlimit="10" opacity="0.7"/><path d="M511.89,114.17V102.63a24.9,24.9,0,0,0-1.4-8.43,15.61,15.61,0,0,0-4.18-6.55l-15.87-14a2,2,0,0,1-.09-2.87h0a2,2,0,0,1,2.69-.09L508.4,84.16s7,5.58,7,18.14v11s15-2.53,24.38.61a14.49,14.49,0,0,1,4.94,2.93l16.19,14.39a2,2,0,0,1,.39,2.55h0a2,2,0,0,1-3,.49l-15.8-13.62a14.9,14.9,0,0,0-6.9-3.37,66.06,66.06,0,0,0-20.85-.29s-.69,20.94,7,25.82l16.21,14.34a2.43,2.43,0,0,1,.11,3.54h0a2.42,2.42,0,0,1-3.38.06l-15.68-14.6a21.35,21.35,0,0,1-6.1-10.19,45.31,45.31,0,0,1-1.63-18.27s-18.72,4-25.76-1.86l-18-15.59a2,2,0,0,1-.1-2.9h0a2,2,0,0,1,2.68-.1l17.45,14.87S491.65,117,511.89,114.17Z" fill="none" stroke="#fff" stroke-miterlimit="10" opacity="0.7"/><line x1="495.15" y1="77.83" x2="472.92" y2="99.68" fill="none" stroke="#fff" stroke-miterlimit="10" opacity="0.7"/><line x1="499.34" y1="82.02" x2="477.11" y2="103.87" fill="none" stroke="#fff" stroke-miterlimit="10" opacity="0.7"/><line x1="505.36" y1="86.82" x2="482.14" y2="107.54" fill="none" stroke="#fff" stroke-miterlimit="10" opacity="0.7"/><line x1="509.45" y1="91.81" x2="486.08" y2="110.9" fill="none" stroke="#fff" stroke-miterlimit="10" opacity="0.7"/><line x1="511.48" y1="97.94" x2="492" y2="114.15" fill="none" stroke="#fff" stroke-miterlimit="10" opacity="0.7"/><line x1="511.89" y1="105.19" x2="500.32" y2="115.03" fill="none" stroke="#fff" stroke-miterlimit="10" opacity="0.7"/><line x1="524.11" y1="116.3" x2="515.5" y2="129.41" fill="none" stroke="#fff" stroke-miterlimit="10" opacity="0.7"/><line x1="529.91" y1="116.5" x2="517.49" y2="137.07" fill="none" stroke="#fff" stroke-miterlimit="10" opacity="0.7"/><line x1="536.64" y1="117.52" x2="521.66" y2="142.78" fill="none" stroke="#fff" stroke-miterlimit="10" opacity="0.7"/><line x1="542.43" y1="120.62" x2="525.57" y2="146.24" fill="none" stroke="#fff" stroke-miterlimit="10" opacity="0.7"/><line x1="547.21" y1="124.74" x2="529.91" y2="150.08" fill="none" stroke="#fff" stroke-miterlimit="10" opacity="0.7"/><line x1="552.63" y1="129.41" x2="535.2" y2="154.76" fill="none" stroke="#fff" stroke-miterlimit="10" opacity="0.7"/><polygon points="277.72 385.66 274.64 407.07 264.82 409.69 277.72 409.69 277.72 385.66" fill="#fff" opacity="0.5"/><circle cx="600.18" cy="219.9" r="8.72" fill="#fff" opacity="0.5"/><circle cx="357.31" cy="138.25" r="8.72" fill="#fff" opacity="0.5"/><circle cx="539.46" cy="433.46" r="26.17" fill="#8100f2"/><path d="M738,359.83v173.7q-6.46,5.44-13,10.35-6.74,5-13.5,9.55V359.83Z" fill="#fff" opacity="0.5"/><rect x="679.39" y="431.01" width="72.58" height="83.05" fill="#fff"/><rect x="691.95" y="448.46" width="53.04" height="3.49" fill="#5b5982"/><rect x="691.95" y="476.38" width="53.04" height="3.49" fill="#5b5982"/><rect x="691.95" y="482.66" width="53.04" height="3.49" fill="#5b5982"/><rect x="701.72" y="455.44" width="30.71" height="3.49" fill="#5b5982"/><path d="M519.57,421.24h0a3.49,3.49,0,0,1,3.49,3.49V572a0,0,0,0,1,0,0h-7a0,0,0,0,1,0,0V424.73a3.49,3.49,0,0,1,3.49-3.49Z" fill="#5b5982"/><path d="M688.46,424.73v142.7q-3.51,1.94-7,3.75V424.73a3.49,3.49,0,1,1,7,0Z" fill="#5b5982"/><path d="M530.73,433.81h39.78a0,0,0,0,1,0,0V540.93a19.89,19.89,0,0,1-19.89,19.89h0a19.89,19.89,0,0,1-19.89-19.89V433.81A0,0,0,0,1,530.73,433.81Z" fill="#ccc"/><path d="M533.8,455.44v85.08a16.61,16.61,0,0,0,16.61,16.62h0A16.62,16.62,0,0,0,567,540.52V457.19s-12.33,4.72-19.07.7a14.89,14.89,0,0,0-3-1.43C542.37,455.63,537.75,454.5,533.8,455.44Z" fill="#8100f2" opacity="0.48"/><rect x="532.13" y="481.96" width="6.98" height="47.46" rx="3.49" fill="#fff"/><rect x="532.13" y="441.48" width="6.98" height="20.94" rx="3.49" fill="#fff"/><path d="M582.38,433.81h39.78a0,0,0,0,1,0,0V540.93a19.89,19.89,0,0,1-19.89,19.89h0a19.89,19.89,0,0,1-19.89-19.89V433.81A0,0,0,0,1,582.38,433.81Z" fill="#ccc"/><path d="M585.44,455.44v85.08a16.62,16.62,0,0,0,16.61,16.62h0a16.62,16.62,0,0,0,16.62-16.62V457.19s-12.32,4.72-19.07.7a14.81,14.81,0,0,0-3-1.43C594,455.63,589.4,454.5,585.44,455.44Z" fill="#8100f2" opacity="0.48"/><rect x="583.77" y="481.96" width="6.98" height="47.46" rx="3.49" fill="#fff"/><rect x="583.77" y="441.48" width="6.98" height="20.94" rx="3.49" fill="#fff"/><path d="M634,433.81H673.8a0,0,0,0,1,0,0V540.93a19.89,19.89,0,0,1-19.89,19.89h0A19.89,19.89,0,0,1,634,540.93V433.81A0,0,0,0,1,634,433.81Z" fill="#ccc"/><path d="M637.08,455.44v85.08a16.62,16.62,0,0,0,16.62,16.62h0a16.61,16.61,0,0,0,16.61-16.62V457.19s-12.32,4.72-19.06.7a14.89,14.89,0,0,0-3-1.43C645.66,455.63,641,454.5,637.08,455.44Z" fill="#8100f2" opacity="0.48"/><rect x="635.42" y="481.96" width="6.98" height="47.46" rx="3.49" fill="#fff"/><rect x="635.42" y="441.48" width="6.98" height="20.94" rx="3.49" fill="#fff"/><rect x="519.57" y="462.42" width="165.4" height="7.68" fill="#5b5982"/><path d="M802.72,435.7H779.38V412.37h23.34Zm-22.34-1h21.34V413.37H780.38Z" fill="#8100f2"/><rect x="526.55" y="428.22" width="47.46" height="10.47" rx="5.23" fill="#e6e6e6"/><rect x="578.19" y="428.22" width="47.46" height="10.47" rx="5.23" fill="#e6e6e6"/><rect x="629.84" y="428.22" width="47.46" height="10.47" rx="5.23" fill="#e6e6e6"/><polygon points="760.34 322.14 629.84 322.14 629.84 340.29 634.02 340.29 634.02 365.41 756.16 365.41 756.16 340.29 760.34 340.29 760.34 322.14" fill="#e6e6e6"/><rect x="638.21" y="340.29" width="3.49" height="6.28" fill="#ccc"/><rect x="650.08" y="340.29" width="3.49" height="6.28" fill="#ccc"/><rect x="662.64" y="340.29" width="3.49" height="6.28" fill="#ccc"/><rect x="673.8" y="340.29" width="3.49" height="6.28" fill="#ccc"/><rect x="687.06" y="340.29" width="3.49" height="6.28" fill="#ccc"/><rect x="698.93" y="340.29" width="3.49" height="6.28" fill="#ccc"/><rect x="711.49" y="340.29" width="3.49" height="6.28" fill="#ccc"/><rect x="722.66" y="340.29" width="3.49" height="6.28" fill="#ccc"/><rect x="735.92" y="340.29" width="3.49" height="6.28" fill="#ccc"/><rect x="747.08" y="340.29" width="3.49" height="6.28" fill="#ccc"/><path d="M198.51,299.74l-4.79-.08,16.53,203.83s39.72-.29,52.59-6.06l11.81-90.36L240.24,305.42Z" fill="#8100f2"/><path d="M239.72,306.34l-41.21-6.6,0-4v-1.23l.16-17.86c1-.25,2-2.29,3.5-3.5.95-.76,2.11-.05,2.56-.69l3.94-4.64,27.62,22.42c-.26,9.05,2.22,13.32,3.9,15.17A.56.56,0,0,1,239.72,306.34Z" fill="#f9b499"/><path d="M239.72,306.34l-11.46-1.84c-16.47-6.15-18-24.05-18-24.05,12.53,13.79,26.09,9.8,26.09,9.8A31,31,0,0,0,237.4,300c.09.34.2.66.31,1a13,13,0,0,0,2.53,4.46A.56.56,0,0,1,239.72,306.34Z" fill="#f7a48b"/><path d="M220,443.78a.29.29,0,0,1,0,.13c0,1.83-.05,3.69-.12,5.57-.24,7-.83,14.27-1.7,21.7-.15,1.35-.31,2.71-.49,4.07-1.18,9.29-2.75,18.77-4.59,28.19h0c0,.05-.05.25-.11.59-6.72,34.42-16.78,68-23.44,88.5a384.28,384.28,0,0,1-60.69-31.7c-3.74-2.39-7.14-4.66-10.17-6.74l9.66-38.35,9.69-38.48,1.66-6.61-.51-.6c-.44-.54-1.15-1.39-2-2.39l-.36-.44a86.35,86.35,0,0,1-5.5-8.05,103,103,0,0,1-13.68-41.52c-3.57-36.89,1.71-60.32,6.57-73.26a49.76,49.76,0,0,1,14.12-20.14,108.22,108.22,0,0,1,53.48-24.38c.61-.09,1.07-.14,1.38-.18l.45,0v0c.19.22,2.16,2.67,5,9.34,6.13,14.43,16.28,48.6,21,122.64C220,435.56,220.07,439.61,220,443.78Z" fill="#8100f2"/><path d="M220,443.78a.29.29,0,0,1,0,.13c0,1.83-.05,3.69-.12,5.57-.24,7-.83,14.27-1.7,21.7-.15,1.35-.31,2.71-.49,4.07-1.18,9.29-2.75,18.77-4.59,28.19h0c0,.05-.05.25-.11.59-6.72,34.42-16.78,68-23.44,88.5a384.28,384.28,0,0,1-60.69-31.7c-3.74-2.39-7.14-4.66-10.17-6.74l9.66-38.35,9.69-38.48,1.66-6.61-.51-.6c-.44-.54-1.15-1.39-2-2.39l-.36-.44a86.35,86.35,0,0,1-5.5-8.05,103,103,0,0,1-13.68-41.52c-3.57-36.89,1.71-60.32,6.57-73.26a49.76,49.76,0,0,1,14.12-20.14,108.22,108.22,0,0,1,53.48-24.38c.61-.09,1.07-.14,1.38-.18l.45,0v0c.19.22,2.16,2.67,5,9.34,6.13,14.43,16.28,48.6,21,122.64C220,435.56,220.07,439.61,220,443.78Z" fill="#fff" opacity="0.5"/><polygon points="173.72 309.66 178.72 343.37 185.46 345.83 179.59 353.54 195.72 341.66 184.72 341.62 173.72 309.66" fill="#fff" opacity="0.5"/><path d="M178.72,358.1s20,59.56,36,79.56C214.72,437.66,183.72,367.53,178.72,358.1Z" fill="#fff" opacity="0.5"/><path d="M168.2,353.54s6.52,49.12,1.52,71.12c0,0-8.24-1-7.89,5.46a.3.3,0,0,0,.46.24c1.35-.84,5.87-3,12.92.3l35,9.46-33.53-21.46S177.68,366.42,168.2,353.54Z" fill="#fff" opacity="0.5"/><path d="M134.9,353.54s-15.82,37.61,0,78.87Z" fill="#fff" opacity="0.5"/><path d="M131.38,459.14s54.34,17.52,69.34,11.52c0,0,5-23.47,14-27.74,0,0-8,17.74-7,33.74l-52-4-1,7-16.67-2.38,1.67-6.62S132.05,461.62,131.38,459.14Z" fill="#8100f2"/><path d="M131.38,459.14s54.34,17.52,69.34,11.52c0,0,5-23.47,14-27.74,0,0-8,17.74-7,33.74l-52-4-1,7-16.67-2.38,1.67-6.62S132.05,461.62,131.38,459.14Z" fill="#fff" opacity="0.6"/><path d="M413.72,377.66,357.08,407.4h0l-23.34,12.25c-17,9-49-28-49-28-2,11-1,37-1,37l8.07,139.21h-8.07V549.66c-12-15-18-43-18-43-12-28-25.48-201.24-25.48-201.24,28.12,7,49,17.79,64.08,28.33,23.21,16.27,32.4,31.91,32.4,31.91l57-26,5.64,10.71Z" fill="#8100f2"/><path d="M413.72,377.66,357.08,407.4h0l-23.34,12.25c-17,9-49-28-49-28-2,11-1,37-1,37l8.07,139.21h-8.07V549.66c-12-15-18-43-18-43-12-28-25.48-201.24-25.48-201.24,28.12,7,49,17.79,64.08,28.33,23.21,16.27,32.4,31.91,32.4,31.91l57-26,5.64,10.71Z" fill="#fff" opacity="0.5"/><path d="M399.36,350.37l-34.31,16.78a59.33,59.33,0,0,1-20.32,5.45A10.3,10.3,0,0,0,339,375a7.52,7.52,0,0,0-2.42,4.36c-.93,4.44-5.85.33-5.85.33l-26.41-45.91h0c23.21,16.27,32.4,31.91,32.4,31.91l57-26Z" fill="#fff" opacity="0.5"/><path d="M357.06,407.41l-23.34,12.25c-17,9-49-28-49-28s2-39-2-51c0,0,12,5.46,9.5,40.73,0,0-1.93,6.7,7.29,16.49a22.25,22.25,0,0,0,4,4.77,36.84,36.84,0,0,0,29.37,10A123.08,123.08,0,0,0,357.06,407.41Z" fill="#fff" opacity="0.5"/><path d="M255.93,458.2s10.82,34.23,32.3,48.34l3.56,61.33h-8.07V549.66S265.14,533.74,255.93,458.2Z" fill="#fff" opacity="0.5"/><path d="M254.19,445.3s7.53-34.64,13.53-81.64c0,0-.69,66.65-12.85,86.83Z" fill="#fff" opacity="0.5"/><path d="M263.72,312.66s3.21,25,1.1,30h-8v3.86h2.36l8.5,8.57-4-9.43s6,2,5-8l-2.36-24Z" fill="#fff" opacity="0.5"/><path d="M256.08,334l-1.86,64.65-1,0L255.08,334a38.28,38.28,0,0,0-.34-5.06c-2.4-17.63-7.52-24.2-11.39-26.6a8.79,8.79,0,0,0-5.64-1.38c-.11-.3-.22-.62-.31-1a9.54,9.54,0,0,1,6.44,1.47c4.07,2.5,9.43,9.27,11.89,27.34A38.63,38.63,0,0,1,256.08,334Z" fill="#5b5982"/><ellipse cx="255.72" cy="411.16" rx="9" ry="13.5" fill="#8100f2"/><path d="M198.56,294.52v1.23c-1.76.92-16.74,9.55-15.79,33.39l-1,0C180.84,306.11,195.28,296.41,198.56,294.52Z" fill="#5b5982"/><path d="M153,393c-.11-2.29-2.3-56.1,23.82-63.45a17.92,17.92,0,0,1,16.91,4.08c8.18,7.37,17.68,23.65,16.45,59.36l-1,0c1.22-35.33-8.09-51.36-16.12-58.59a17,17,0,0,0-16-3.86C151.73,337.65,154,392.4,154,393Z" fill="#5b5982"/><circle cx="209.72" cy="396.66" r="4" fill="#8100f2"/><circle cx="153.72" cy="396.66" r="4" fill="#8100f2"/><path d="M178.72,492l-5.67,43-32.33-12.37-11.84,38.18c-3.74-2.39-7.14-4.66-10.17-6.74l9.66-38.35,40.35,13.91Z" fill="#fff" opacity="0.5"/><path d="M137.91,486.51c2.5,1.86,5.84,2.19,8.82,2.81,9.28,1.53,18.69,1.89,28.05,2.7-1.57.07-3.14.07-4.71.11-7.87-.05-26.33-.48-32.16-5.62Z" fill="#fff" opacity="0.5"/><path d="M193.72,299.66s12,28,29.65,29.52a12.13,12.13,0,0,0,3.45-.22c4.84-.95,15.37-5.12,13.42-23.54Z" opacity="0.2"/><path d="M285,612.41v.25h-7.27c0-.13-.07-.26-.1-.39-11.49-.26-18.87-.72-18.87-.72a250.17,250.17,0,0,1-30.67-6.06c-2.36-.61-4.69-1.25-7-1.93a308.29,308.29,0,0,1-31.34-10.95A734.39,734.39,0,0,0,213,504c.06-.34.1-.54.11-.59h0c2.42-.07,4.73-.14,6.92-.23,5.94-.23,11.06-.53,15.49-.87l.58,0h.09c19.77-1.57,25.17-4,26.36-4.66a1.42,1.42,0,0,0,.27-.18h0a150.47,150.47,0,0,0,5.1,20.16c1.21,3.73,2.5,7.15,3.8,10.25l.06.14c1.67,4,3.35,7.48,4.9,10.4,0,.07.07.13.1.19A87.79,87.79,0,0,0,283.22,549l.46.61v0l0,0,.37,18.21Z" fill="#5b5982"/><path d="M220,503.21l2.69,68.45s12-8.64,15-18.82l-1.54-50.56Z" opacity="0.2"/><path d="M228.08,605.49c-2.36-.61-4.69-1.25-7-1.93l3.42-30Z" opacity="0.2"/><path d="M285,612.41v.25h-7.27c0-.13-.07-.26-.1-.39-3.51-14-8.48-78.69-9.65-94.37,0-.1,0-.21,0-.31-.15-2-.23-3.12-.23-3.12a121,121,0,0,0,4,13.37l.06.14c5.33,14.4,11.3,21,11.86,21.63h0v0l0,0,.37,18.21Z" opacity="0.2"/><path d="M437.46,317.88l-10.74,5.78s11,3,5,7a9,9,0,0,1,2.37,10,7.49,7.49,0,0,1,.87,7.67,8.92,8.92,0,0,1-3.19,4.06c-1.28.89-2.92,1.53-4,.07a.86.86,0,0,0-1.48.18c-1.89,4.48-7.48,15-18.11,14.57l-12-22.81L403,333.87s6.74-12.21,18.74-17.21l15-6s4.71-1.35,6.52-.52h0c1,.45,1.09,1.54-.85,3.82A17.4,17.4,0,0,1,437.46,317.88Z" fill="#f9b499"/><path d="M437.46,317.88l-10.74,5.78c-7,1-16,7-16,7a30.39,30.39,0,0,1,14.36-10.4c12.35-5.39,18.16-10.12,18.16-10.12h0c1,.45,1.09,1.54-.85,3.82A17.4,17.4,0,0,1,437.46,317.88Z" fill="#f7a48b"/><path d="M411.72,345.66s8.28.77,11.64-7.11c0,0,6.36-9.89,8.36-7.89,0,0-.79,2.57-4.39,8.79,0,0-2.9,3.25-.76,6.23,0,0,3.29,2,6.22-5,0,0,.95,4.26-3.87,8a4.42,4.42,0,0,1-4.66.56c-1.16-.58-2.16-1.78-2-4.19A8.26,8.26,0,0,1,411.72,345.66Z" fill="#f7a48b"/><ellipse cx="231.72" cy="251.16" rx="32" ry="39.5" fill="#f9b499"/><path d="M276.57,213.71a22.89,22.89,0,0,1-2.81,9.79c-10.07,18.18-34.43,9.74-36,9.19l-.08,0c1,4,6,7,6,7-24,6-30.79-9.07-30.79-9.07.22,10.93-5.57,24.43-5.57,24.43l-26.28-2c-9.64-6.61-9.36-20.39-9.36-20.39-4-27,28-26.5,28-26.5s8-30.5,34-15.5c6.56,3.78,12.25,6.74,16.48,7.89a16.55,16.55,0,0,0,9.07-.14c7.08-2.1,8.53.29,8.17,2.75a1.1,1.1,0,0,0,1.56,1.15c4.6-2,6.49,2,7.25,6.11A21.86,21.86,0,0,1,276.57,213.71Z" fill="#5b5982"/><path d="M276.57,213.71a22.89,22.89,0,0,1-2.81,9.79c-10.07,18.18-34.43,9.74-36,9.19l-.08,0s-6-9,7-7C244.72,225.66,268.43,230.77,276.57,213.71Z" opacity="0.2"/><path d="M212.93,230.59s-1.64-5.88,3-4.32a7.54,7.54,0,0,1,3.79,3c2.11,3.11,7.27,9.85,13.63,11.82C233.36,241.07,221.14,243.52,212.93,230.59Z" opacity="0.2"/><path d="M172.42,238.86s8.94.73,13.62-3.74c0,0,14.68-11,12.18,11.28,0,0-9.78-4-17.14,6.65C181.08,253.05,174.12,249.05,172.42,238.86Z" opacity="0.2"/><ellipse cx="193.72" cy="261.66" rx="15" ry="16" fill="#f9b499"/><path d="M264.72,485.66c-1,5-57.05-13.64-57.05-13.64a84,84,0,0,1,5.51-25.27c12.76-9.63,40.82,3.13,47.22,6.24l1.16.59a.19.19,0,0,1,.1.25c-2.19,6.8-16.94,4.83-16.94,4.83-8-2-8.53,2.63-8.53,2.63l13.53,10.37a82.68,82.68,0,0,1,10.47,8C264.72,483.86,264.72,485.66,264.72,485.66Z" fill="#f9b499"/><path d="M264.72,485.66c-1,5-57.05-13.64-57.05-13.64s5.38-4.19,17.05,1.64c4,2,33,15,35.47,6C264.72,483.86,264.72,485.66,264.72,485.66Z" fill="#f7a48b"/><path d="M233.72,468.66c6.27,4.65,16.57,13,24.71,9.45a8.64,8.64,0,0,1-3.27,1.34c-8.13,1-16.12-5.25-21.44-10.79Z" fill="#f7a48b"/><path d="M261.66,453.83c-2.19,6.8-16.94,4.83-16.94,4.83-8-2-8.53,2.63-8.53,2.63s-4.47-7.63,7.53-6.63c0,0,12.35,2.67,16.67-1.66h0l1.16.59A.19.19,0,0,1,261.66,453.83Z" fill="#f7a48b"/><path d="M209.72,460.66s7.17-17.07,29.58-15.53c0,0-15.66-5.29-26.12,1.62C213.18,446.75,209.25,456.24,209.72,460.66Z" fill="#f7a48b"/><ellipse cx="251.72" cy="411.16" rx="9" ry="13.5" fill="#e6e6e6"/></svg>