<svg xmlns="http://www.w3.org/2000/svg" viewBox="0 0 865.76 682.89"><path d="M770.85,466.37C745.82,716.76,584,653.8,584,653.8l-4.51-1-1-.21-1.48-.32-4.57-1-2.25-.47-7.92-1.63-2.06-.43-1-.19-2.12-.43-4.19-.85-2.07-.41-2-.41-4-.79-1.81-.35q-15.45-3-28.52-5.33l-1.61-.28q-8-1.42-15.23-2.59l-1.28-.21q-4.36-.72-8.43-1.34l-1.36-.21-2.27-.35c-3-.44-5.81-.86-8.53-1.24-2.29-.32-4.49-.63-6.61-.9l-1.05-.14-2.67-.35-1.66-.2-1.05-.13c-5.55-.68-10.46-1.21-14.8-1.62l-.75-.06-.7-.07-1.69-.15-2.15-.17-.25,0-1.39-.11-1.35-.1-2.53-.17-1.2-.07-1.74-.09-1.48-.07-1.13,0-1.83-.06-1.45,0h-.67c-7.09-.11-9.56.37-9.56.37-19.39-1.91-68.87,9-68.87,9l-67.84,16.05c-23.84,6-72.47,6.58-72.47,6.58l-1.58-.29-1.3-.24-1-.19c-4.71-.92-9.28-2-13.69-3.18l-2.07-.57q-4.2-1.19-8.24-2.51l-1.13-.38-1.12-.38c-1.55-.53-3.09-1.08-4.6-1.64l-1.84-.69q-4.48-1.72-8.75-3.61l-.87-.39c-1.36-.6-2.71-1.23-4-1.86l-1-.48c-1.32-.64-2.63-1.29-3.91-2-.33-.16-.65-.33-1-.5l-.95-.5c-.66-.34-1.3-.69-2-1l-1.15-.64-1.27-.7-1-.58-.9-.52-1.34-.78L143.1,637c-.37-.21-.74-.44-1.1-.66l-1.09-.67-1.12-.7-1.48-.93-.18-.12-1.42-.93-.37-.24c-.51-.33-1-.67-1.51-1l-1.3-.88-1.41-1c-.4-.27-.8-.55-1.19-.84-1.25-.88-2.48-1.78-3.68-2.68l-.66-.5q-2.28-1.73-4.47-3.49l-1.14-.92c-.67-.55-1.34-1.1-2-1.66l-1.09-.92q-2-1.71-3.9-3.43l-.84-.76-.93-.86c-.43-.39-.85-.78-1.26-1.18-2.79-2.63-5.44-5.28-7.94-7.92l-1.43-1.54-.71-.76-.7-.77-.69-.77q-1.93-2.16-3.74-4.29c-1.37-1.62-2.68-3.23-4-4.82l-.52-.67-.14-.17-.51-.66c-.77-1-1.53-2-2.26-3-.18-.24-.37-.48-.55-.73l-.72-1-.37-.51-.48-.67,0,0-.81-1.14-.72-1-.42-.61c-.68-1-1.35-2-2-2.9l-.57-.86c-.38-.57-.75-1.14-1.11-1.7-.77-1.18-1.51-2.35-2.21-3.49-.29-.46-.57-.92-.85-1.38-.51-.84-1-1.66-1.48-2.47l-.83-1.43-.43-.75-.41-.73-.81-1.44-.39-.71-.75-1.38-.33-.63-.33-.63,0-.07-.62-1.19L70.7,559l-1.34-2.69c-.3-.62-.57-1.2-.84-1.77-.16-.33-.31-.66-.46-1-.37-.82-.72-1.58-1-2.28l-.15-.33c-.38-.88-.71-1.64-1-2.28l-.12-.3-.17-.42-.09-.24c-.33-.84-.51-1.32-.54-1.4h0q-2.8-5.65-5.17-11.22c-.3-.7-.59-1.41-.88-2.11h0q-.5-1.18-1-2.37c-.08-.19-.15-.37-.22-.55-.77-2-1.51-3.93-2.2-5.88l-.24-.65c-.24-.68-.46-1.34-.69-2s-.37-1.08-.55-1.62c-.41-1.26-.81-2.52-1.2-3.77l-.45-1.49c-.37-1.23-.72-2.45-1-3.67v0c-.23-.84-.45-1.68-.67-2.52h0c-.22-.84-.43-1.68-.64-2.51,0,0,0,0,0-.05a171.11,171.11,0,0,1-3.72-20.7l-.06-.45c-.11-1-.21-2-.3-2.95,0-.28,0-.56-.08-.83q-.19-2.18-.33-4.32-.43-6.61-.32-13c0-.37,0-.73,0-1.08l0-1c0-.26,0-.52,0-.78s0-.72,0-1.08c0-.15,0-.3,0-.44,0-.49,0-1,.07-1.45.08-1.66.19-3.31.33-4.94,0-.58.09-1.15.15-1.72l.15-1.65v-.1c.06-.51.11-1,.17-1.51l0-.32c.06-.47.11-.93.17-1.4l0-.23c.06-.48.12-1,.19-1.45s.12-.93.19-1.39.11-.84.18-1.25l.12-.78a2.51,2.51,0,0,1,0-.27c.07-.48.15-.95.23-1.43s.19-1.12.28-1.67l.33-1.81c.09-.48.18-.95.28-1.43l.24-1.23.42-2c.11-.54.23-1.07.35-1.6s.24-1.06.37-1.58.25-1.06.38-1.58c.21-.87.44-1.74.66-2.6.11-.41.21-.81.32-1.21a.65.65,0,0,0,0-.13c.11-.41.22-.82.34-1.23l.36-1.28c.24-.85.49-1.69.74-2.53l.36-1.16c.27-.86.54-1.73.82-2.58.14-.41.27-.83.41-1.24l.4-1.17c.28-.83.58-1.66.87-2.48l.44-1.2c.12-.34.25-.68.37-1l.63-1.65c.24-.66.5-1.31.76-2,.17-.43.34-.86.52-1.29s.31-.77.47-1.15c.29-.7.58-1.39.88-2.08.67-1.6,1.37-3.17,2.08-4.72l.46-1q1.3-2.81,2.67-5.51l1.08-2.11.54-1c.18-.35.36-.69.55-1l.6-1.13c.49-.9,1-1.8,1.48-2.68.19-.34.38-.69.58-1s.45-.8.68-1.19l.56-1c1.51-2.59,3-5.09,4.58-7.5l.58-.9.58-.89c.19-.3.39-.59.58-.88q2.61-3.94,5.2-7.54Q84.73,355,87.11,352c.23-.29.45-.58.68-.86,1.35-1.72,2.68-3.36,4-4.92l.64-.77c1.92-2.29,3.76-4.38,5.48-6.28l.57-.62c.76-.83,1.49-1.62,2.19-2.36l1-1.09c3.21-3.35,5.78-5.79,7.39-7.26l.43-.4c.91-.82,1.41-1.24,1.41-1.24l1.11-1,1.11-1c.36-.34.73-.69,1.09-1.05s.72-.71,1.08-1.08.72-.72,1.08-1.1l1.06-1.11q1.59-1.69,3.12-3.48.53-.6,1-1.2l.21-.25c.27-.32.54-.64.8-1s.67-.82,1-1.23l.88-1.11,1.09-1.4c.32-.43.65-.86,1-1.29.74-1,1.46-2,2.17-3l.41-.58.74-1.05c.08-.13.17-.26.26-.38l1-1.43v0c.33-.48.65-1,1-1.45l.48-.74c.28-.41.55-.83.82-1.25a1.64,1.64,0,0,1,.14-.22l.93-1.49a.41.41,0,0,0,.07-.11l1.11-1.79.21-.35.82-1.35.06-.1.09-.16c.3-.49.59-1,.88-1.49l.84-1.45h0c.29-.49.57-1,.85-1.48.87-1.55,1.73-3.1,2.56-4.66l.69-1.3c.59-1.12,1.17-2.23,1.74-3.35l.58-1.15.59-1.17.38-.78.52-1c.49-1,1-2,1.44-3,.16-.35.33-.69.49-1,.31-.65.6-1.29.9-1.93s.68-1.48,1-2.22l.34-.76q1.2-2.67,2.32-5.28l.63-1.48.19-.45.12-.3c.31-.73.61-1.47.91-2.2l.6-1.45c1.27-3.13,2.45-6.17,3.54-9.07.17-.45.34-.89.5-1.33l0-.12c.08-.21.15-.41.22-.61a1.36,1.36,0,0,0,.09-.23c.15-.39.29-.78.43-1.16.84-2.31,1.62-4.52,2.34-6.61a126.25,126.25,0,0,0,6.6-32.51c0-.63.09-1.26.14-1.88,0-.11,0-.23,0-.34.09-1.1.18-2.19.28-3.28,0,0,0-.06,0-.09l.18-1.83c.06-.6.12-1.2.19-1.8s.12-1.08.19-1.61a1.11,1.11,0,0,1,0-.17c.07-.6.14-1.19.22-1.77s.15-1.17.23-1.75l.21-1.47c.09-.67.2-1.35.3-2s.17-1.09.26-1.63v0c.08-.44.15-.88.23-1.32.21-1.23.43-2.43.66-3.63.1-.54.21-1.07.31-1.61l.33-1.6c.11-.53.23-1,.34-1.57s.23-1,.35-1.55.21-.91.32-1.37c0-.1,0-.21.07-.31.13-.55.26-1.09.4-1.62.27-1.12.56-2.21.85-3.3.13-.48.27-1,.4-1.44s.19-.68.29-1l.29-1c.1-.31.18-.62.28-.93,0-.05,0-.11.05-.16l.27-.9.69-2.18.24-.74c.1-.32.21-.64.32-.95s.21-.64.32-1,.21-.63.32-.94c.33-.93.66-1.85,1-2.76.11-.3.22-.61.34-.91s.22-.6.34-.89.19-.5.28-.74.07-.18.11-.26l.3-.77c.47-1.17.94-2.31,1.42-3.43.16-.36.31-.72.47-1.07l.33-.76.3-.66.42-.91c.17-.38.35-.77.53-1.14.68-1.45,1.37-2.85,2.07-4.22.47-.92.94-1.81,1.42-2.69.35-.66.71-1.32,1.08-2,.24-.43.48-.86.72-1.27l.36-.63c.61-1,1.22-2,1.83-3l.36-.59c.13-.19.25-.39.37-.58l.37-.57.73-1.13c.13-.18.25-.37.37-.55.62-.92,1.23-1.81,1.84-2.68.12-.17.25-.34.37-.52,1.13-1.58,2.26-3.08,3.37-4.49l.51-.64.12-.16,1-1.21.56-.67.55-.65c.54-.64,1.09-1.26,1.63-1.87l.39-.43c1.29-1.44,2.54-2.75,3.74-4,.09-.08.17-.17.25-.25a86,86,0,0,1,7.09-6.32c.11-.1.22-.18.33-.27l1.3-1,.29-.21c.39-.29.74-.54,1.06-.76l.23-.17c.75-.52,1.28-.86,1.55-1l.07,0,.13-.08a215.34,215.34,0,0,1,56.35-28.83,233.61,233.61,0,0,1,75.59-12.54h2q1,0,2,0l1.73,0,.61,0,1.36,0,.9,0,2.31.1.87,0,1.33.07,1.23.07,1.43.09,1,.07.79.06,1.07.08,2.53.22,1.12.1,1.77.18c.66.06,1.33.13,2,.21l1.57.18,1,.12c1.22.15,2.45.31,3.67.48l1.72.24,1.73.26.75.11,1.25.2c1.26.21,2.52.42,3.78.65.44.08.87.15,1.3.24l1.38.25q3.92.75,7.82,1.63l1.63.37.16,0,1.92.46c.41.09.82.2,1.23.3l1.26.32,1.45.37,1.86.49,1,.26,1.35.38,2,.56,1.29.38c1.8.53,3.6,1.09,5.39,1.66l1,.32,1.38.46,1.37.46,1.28.44,1.45.5,1.72.62,1,.36,1.36.51c.45.16.91.33,1.36.51l1.15.44.37.14,1,.41,2.83,1.13,0,0c.71.28,1.41.58,2.11.87l2.08.89c1.27.55,2.54,1.1,3.79,1.67l1.4.64.68.31,1.16.55.72.34q.66.3,1.32.63l.62.29,1.19.59q3.24,1.59,6.44,3.29l1.51.81.15.08c.6.32,1.21.65,1.81,1l1.53.85,1.13.64,1.74,1L473.58,88l2,1.2.14.08c11.51,7,24.83,15.39,40.08,25.53,1.28.84,2.57,1.71,3.87,2.58l4.27,2.86,4,2.74.11.07,6.36,4.35,4.82,3.32,4.11,2.86,2.38,1.66,4.56,3.19.08.06,4.62,3.26.12.08,9.68,6.9.06,0,4.46,3.21q21.74,15.67,47,34.84a434.14,434.14,0,0,1,79.42,78.23C734.08,314.13,778.57,389.17,770.85,466.37Z" fill="#8100f2"/><path d="M770.85,466.37C745.82,716.76,584,653.8,584,653.8l-4.51-1-1-.21-1.48-.32-4.57-1-2.25-.47-7.92-1.63-2.06-.43-1-.19-2.12-.43-4.19-.85-2.07-.41-2-.41-4-.79-1.81-.35q-15.45-3-28.52-5.33l-1.61-.28q-8-1.42-15.23-2.59l-1.28-.21q-4.36-.72-8.43-1.34l-1.36-.21-2.27-.35c-3-.44-5.81-.86-8.53-1.24-2.29-.32-4.49-.63-6.61-.9l-1.05-.14-2.67-.35-1.66-.2-1.05-.13c-5.55-.68-10.46-1.21-14.8-1.62l-.75-.06-.7-.07-1.69-.15-2.15-.17-.25,0-1.39-.11-1.35-.1-2.53-.17-1.2-.07-1.74-.09-1.48-.07-1.13,0-1.83-.06-1.45,0h-.67c-7.09-.11-9.56.37-9.56.37-19.39-1.91-68.87,9-68.87,9l-67.84,16.05c-23.84,6-72.47,6.58-72.47,6.58l-1.58-.29-1.3-.24-1-.19c-4.71-.92-9.28-2-13.69-3.18l-2.07-.57q-4.2-1.19-8.24-2.51l-1.13-.38-1.12-.38c-1.55-.53-3.09-1.08-4.6-1.64l-1.84-.69q-4.48-1.72-8.75-3.61l-.87-.39c-1.36-.6-2.71-1.23-4-1.86l-1-.48c-1.32-.64-2.63-1.29-3.91-2-.33-.16-.65-.33-1-.5l-.95-.5c-.66-.34-1.3-.69-2-1l-1.15-.64-1.27-.7-1-.58-.9-.52-1.34-.78L143.1,637c-.37-.21-.74-.44-1.1-.66l-1.09-.67-1.12-.7-1.48-.93-.18-.12-1.42-.93-.37-.24c-.51-.33-1-.67-1.51-1l-1.3-.88-1.41-1c-.41-.27-.8-.55-1.19-.84-1.25-.88-2.48-1.78-3.68-2.68l-.66-.5q-2.28-1.73-4.47-3.49l-1.14-.92c-.67-.55-1.34-1.1-2-1.66l-1.09-.92q-2-1.71-3.9-3.43l-.84-.76-.93-.86c-.43-.39-.85-.78-1.26-1.18-2.79-2.63-5.44-5.28-7.94-7.92l-1.43-1.54-.71-.76-.7-.77-.69-.77q-1.93-2.16-3.74-4.29c-1.37-1.62-2.68-3.23-4-4.82l-.52-.67-.14-.17-.51-.66c-.77-1-1.53-2-2.26-3-.18-.24-.37-.48-.55-.73l-.72-1-.37-.51-.48-.67,0,0-.81-1.14-.72-1-.42-.61c-.68-1-1.35-2-2-2.9l-.57-.86c-.38-.57-.75-1.14-1.11-1.7-.77-1.18-1.51-2.35-2.21-3.49-.29-.46-.57-.92-.85-1.38-.51-.84-1-1.66-1.48-2.47l-.83-1.43-.43-.75-.41-.73-.81-1.44-.39-.71-.75-1.38-.33-.64-.33-.62,0-.07-.62-1.19L70.7,559l-1.34-2.69c-.3-.62-.57-1.2-.84-1.77-.16-.33-.31-.66-.46-1-.37-.82-.72-1.58-1-2.28l-.15-.33c-.38-.88-.71-1.64-1-2.28l-.12-.3-.17-.42-.09-.24c-.33-.84-.51-1.32-.54-1.4h0q-2.8-5.65-5.17-11.22c-.3-.7-.59-1.41-.88-2.11h0q-.5-1.18-1-2.37c-.08-.19-.15-.37-.22-.55-.77-2-1.51-3.93-2.2-5.88l-.24-.65c-.24-.68-.46-1.34-.69-2s-.37-1.08-.55-1.62c-.42-1.26-.81-2.52-1.2-3.77l-.45-1.49c-.37-1.23-.72-2.46-1-3.67v0c-.23-.84-.45-1.68-.67-2.52h0c-.22-.84-.43-1.68-.64-2.51,0,0,0,0,0-.05a169.18,169.18,0,0,1-3.72-20.7l-.06-.45c-.11-1-.21-2-.3-2.95,0-.28,0-.56-.08-.83q-.19-2.18-.33-4.32-.43-6.61-.32-13c0-.37,0-.73,0-1.08l0-1c0-.26,0-.52,0-.78s0-.72,0-1.08c0-.15,0-.3,0-.44,0-.49,0-1,.07-1.45.08-1.66.19-3.31.33-4.94,0-.58.09-1.15.15-1.72l.15-1.65v-.1c.06-.51.11-1,.17-1.51l0-.32c.06-.47.11-.93.17-1.4l0-.23c.06-.48.12-1,.19-1.45s.12-.93.19-1.39.11-.84.18-1.25l.12-.78a2.51,2.51,0,0,1,0-.27c.07-.48.15-.95.23-1.43s.19-1.12.28-1.67l.33-1.81c.09-.48.18-.95.28-1.43l.24-1.23.42-2c.11-.54.23-1.07.35-1.6s.24-1.06.37-1.58.25-1.06.38-1.58c.21-.87.44-1.74.66-2.6.11-.41.21-.81.32-1.21a.65.65,0,0,0,0-.13c.11-.41.22-.82.34-1.23l.36-1.28c.24-.85.49-1.69.74-2.53l.36-1.16c.27-.86.54-1.73.82-2.58.14-.41.27-.83.41-1.24l.4-1.17c.28-.83.58-1.66.87-2.48l.44-1.2c.12-.34.25-.68.37-1l.63-1.65c.25-.66.5-1.31.76-2,.17-.43.34-.86.52-1.29s.31-.77.47-1.15c.29-.7.58-1.4.88-2.08.67-1.6,1.37-3.17,2.08-4.72l.46-1q1.3-2.81,2.67-5.51l1.08-2.11.54-1c.18-.35.36-.69.55-1l.6-1.13c.49-.9,1-1.8,1.48-2.68.19-.34.38-.69.58-1s.45-.8.68-1.19l.56-1c1.51-2.59,3-5.09,4.58-7.5l.58-.9.58-.89c.19-.3.39-.59.58-.88q2.61-3.94,5.2-7.54Q84.73,355,87.11,352c.23-.29.45-.58.68-.86,1.35-1.72,2.68-3.36,4-4.92l.64-.77c1.92-2.29,3.76-4.38,5.48-6.28l.57-.62c.76-.83,1.49-1.62,2.19-2.36l1-1.09c3.21-3.35,5.78-5.79,7.39-7.26l.43-.4c.91-.82,1.41-1.24,1.41-1.24l1.11-1,1.11-1c.36-.34.73-.69,1.09-1.05l1.08-1.08c.36-.36.72-.72,1.08-1.1l1.06-1.11q1.59-1.69,3.12-3.48.53-.6,1-1.2l.21-.25c.27-.32.54-.64.8-1s.67-.82,1-1.23.59-.74.88-1.11l1.09-1.4c.32-.43.65-.86,1-1.29l1-1.35,1.16-1.62.41-.58.74-1.05c.08-.13.17-.26.26-.38l1-1.43v0c.33-.48.65-1,1-1.45l.48-.74c.28-.41.55-.83.82-1.25a1.64,1.64,0,0,1,.14-.22l.93-1.49a.41.41,0,0,0,.07-.11l1.11-1.79.21-.35.82-1.35.06-.1.09-.16c.3-.49.59-1,.88-1.49l.84-1.45h0c.29-.49.57-1,.85-1.48.87-1.55,1.73-3.1,2.56-4.66l.69-1.3c.59-1.12,1.17-2.23,1.74-3.35l.58-1.15.59-1.17.38-.78.52-1c.49-1,1-2,1.44-3,.16-.35.33-.69.49-1,.31-.65.6-1.29.9-1.93s.68-1.48,1-2.22l.34-.76q1.2-2.67,2.32-5.28l.63-1.48.19-.45.12-.3c.31-.73.61-1.47.91-2.2.21-.48.4-1,.6-1.45,1.27-3.13,2.45-6.17,3.54-9.07.17-.45.34-.89.5-1.33l0-.12c.08-.2.15-.41.22-.61a1.36,1.36,0,0,0,.09-.23c.15-.39.29-.78.43-1.16.84-2.31,1.62-4.52,2.34-6.61a126.25,126.25,0,0,0,6.6-32.51c0-.63.09-1.26.14-1.88,0-.11,0-.23,0-.34.09-1.1.18-2.19.28-3.28,0,0,0-.06,0-.09l.18-1.83c.06-.6.12-1.2.19-1.8s.12-1.08.19-1.61a1.11,1.11,0,0,1,0-.17c.07-.6.14-1.19.22-1.77s.15-1.17.23-1.75l.21-1.47c.09-.67.2-1.35.3-2s.17-1.09.26-1.63v0c.08-.44.15-.88.23-1.32.21-1.23.43-2.43.66-3.63.1-.54.21-1.07.31-1.61l.33-1.6c.11-.53.23-1,.34-1.57s.23-1,.35-1.55.21-.91.32-1.37c0-.1,0-.21.07-.31.13-.55.26-1.09.4-1.62.27-1.12.56-2.21.85-3.3.13-.48.27-1,.4-1.44s.19-.68.29-1l.29-1c.1-.31.18-.62.28-.93,0-.05,0-.11.05-.16l.27-.9.69-2.18.24-.74c.1-.32.21-.64.32-.95s.21-.64.32-1,.21-.63.32-.94c.33-.93.66-1.85,1-2.76.11-.3.22-.61.34-.91s.22-.6.34-.89.19-.5.28-.74.07-.18.11-.26l.3-.77c.47-1.17.94-2.31,1.42-3.43.16-.36.31-.72.47-1.07l.33-.76.3-.66.42-.91c.17-.38.35-.77.53-1.14.68-1.45,1.37-2.85,2.07-4.22.47-.92.94-1.81,1.42-2.69q.54-1,1.08-2l.72-1.27.36-.63c.61-1,1.22-2,1.83-3l.36-.59c.13-.19.25-.39.37-.58l.37-.57.73-1.13c.13-.18.25-.37.37-.55.62-.92,1.23-1.81,1.84-2.68.12-.17.25-.34.37-.52,1.13-1.58,2.26-3.08,3.37-4.49l.51-.64.12-.16,1-1.21.56-.67.55-.65c.54-.64,1.09-1.26,1.63-1.87l.39-.43c1.29-1.44,2.54-2.75,3.74-4,.09-.08.17-.17.25-.25a86,86,0,0,1,7.09-6.32c.11-.1.22-.18.33-.27l1.3-1,.29-.21c.39-.29.74-.54,1.06-.76l.23-.17c.75-.52,1.28-.86,1.55-1l.07,0,.13-.08a215.34,215.34,0,0,1,56.35-28.83,233.61,233.61,0,0,1,75.59-12.54h2q1,0,2,0l1.73,0,.61,0,1.36,0,.9,0,2.31.1.87,0,1.33.07,1.23.07,1.43.09,1,.07.79.06,1.07.08,2.53.22,1.12.1,1.77.18c.66.06,1.33.13,2,.21l1.57.18,1,.12c1.22.15,2.45.31,3.67.48l1.72.24,1.73.26.75.11,1.25.2c1.26.21,2.52.42,3.78.65.44.08.87.15,1.3.24l1.38.25q3.92.75,7.82,1.63l1.63.37.16,0,1.92.46c.41.09.82.2,1.23.3l1.26.32,1.45.37,1.86.49,1,.26,1.35.38,2,.56,1.29.38c1.8.53,3.6,1.09,5.39,1.66l1,.32,1.38.46,1.37.46,1.28.44,1.45.5,1.72.62,1,.36,1.36.51c.45.16.91.33,1.36.51l1.15.44.37.14,1,.41,2.83,1.13,0,0c.71.28,1.41.58,2.11.87l2.08.89c1.27.55,2.54,1.1,3.79,1.67l1.4.64.68.31,1.16.55.72.34q.66.3,1.32.63l.62.29,1.19.59q3.24,1.59,6.44,3.29l1.51.81.15.08c.6.32,1.21.65,1.81,1l1.53.85,1.13.64,1.74,1L473.58,88l2,1.2.14.08c11.51,7,24.83,15.39,40.08,25.53,1.28.84,2.57,1.71,3.87,2.58l4.27,2.86,4,2.74.11.07,6.36,4.35,4.82,3.32,4.11,2.86,2.38,1.66,4.56,3.19.08.06,4.62,3.26.12.08,9.68,6.9.06,0,4.46,3.21q21.74,15.67,47,34.84a434.14,434.14,0,0,1,79.42,78.23C734.08,314.13,778.57,389.17,770.85,466.37Z" fill="#fff" opacity="0.7"/><path d="M281.31,466.22V654.71c-23.84,6-72.47,6.58-72.47,6.58-67.85-12.06-106.73-53-126.56-82.57V466.22Z" fill="#fff" opacity="0.7"/><rect x="171.94" y="517.41" width="34.66" height="6.99" fill="#5b5982"/><path d="M228.85,293.58v132.9H82.28V358.42c14.9-20.65,28.62-32.25,28.62-32.25,9.81-8.7,18.41-20.25,25.78-32.59Z" fill="#fff" opacity="0.7"/><rect x="168.92" y="362.73" width="27.66" height="9.54" fill="#5b5982"/><path d="M125.36,313.61h0a6.84,6.84,0,0,1,6.84,6.84v12.88a0,0,0,0,1,0,0H118.53a0,0,0,0,1,0,0V320.45A6.84,6.84,0,0,1,125.36,313.61Z" fill="#8100f2"/><path d="M125.36,313.61h0a6.84,6.84,0,0,1,6.84,6.84v12.88a0,0,0,0,1,0,0H118.53a0,0,0,0,1,0,0V320.45a6.84,6.84,0,0,1,6.84-6.84Z" fill="#fff" opacity="0.5"/><path d="M228.85,293.58v14H127.47c3.26-4.46,6.33-9.17,9.21-14Z" fill="#fff" opacity="0.7"/><rect x="238.39" y="206.47" width="15.26" height="8.27" fill="#5b5982"/><path d="M222.81,191.69v56.89a20.52,20.52,0,0,1-20.52,20.52H171.15a20.47,20.47,0,0,1-17.43-9.71c3.56-8.47,6.49-16.4,8.79-23.08a126.25,126.25,0,0,0,6.6-32.51,196,196,0,0,1,4.79-32.31c0-.1,0-.21.07-.31h28.32a21.6,21.6,0,0,1,2.56.15A20.53,20.53,0,0,1,222.81,191.69Z" fill="#8100f2"/><path d="M222.81,191.69v56.89a20.52,20.52,0,0,1-20.52,20.52H171.15a20.47,20.47,0,0,1-17.43-9.71c3.56-8.47,6.49-16.4,8.79-23.08a126.25,126.25,0,0,0,6.6-32.51,196,196,0,0,1,4.79-32.31c0-.1,0-.21.07-.31h28.32a21.6,21.6,0,0,1,2.56.15A20.53,20.53,0,0,1,222.81,191.69Z" fill="#fff" opacity="0.5"/><path d="M234.36,211.55h23.31a3.61,3.61,0,0,1,3.61,3.61v48.4a5.54,5.54,0,0,1-5.54,5.54H236.3a5.54,5.54,0,0,1-5.54-5.54v-48.4A3.61,3.61,0,0,1,234.36,211.55Z" fill="#8100f2"/><path d="M234.15,211.55h23.74a3.39,3.39,0,0,1,3.39,3.39v48.83A5.33,5.33,0,0,1,256,269.1H236.08a5.33,5.33,0,0,1-5.33-5.33V214.94A3.39,3.39,0,0,1,234.15,211.55Z" fill="#fff" opacity="0.5"/><path d="M731.56,476.84c-3.89-1.31-7.68-.48-8.47,1.85-.51,1.5.37,3.27,2.11,4.69l-3.57,16.82,2.87,1.25,8.34-15.56c2.16-.11,3.85-1,4.35-2.45C738,481.11,735.46,478.16,731.56,476.84Z" fill="#8100f2"/><path d="M772.41,520.46c-1.53-3.82-4.62-6.16-6.9-5.25-1.48.59-2.25,2.41-2.2,4.65l-15.12,8.21.92,3,17.25-3.76c1.49,1.57,3.25,2.3,4.69,1.72C773.33,528.1,773.94,524.27,772.41,520.46Z" fill="#8100f2"/><path d="M770,578.42c1.54-3.81.94-7.64-1.34-8.56-1.48-.6-3.29.17-4.81,1.82l-16.59-4.55-1.41,2.79,15,9.24c0,2.17.75,3.91,2.19,4.49C765.36,584.58,768.46,582.23,770,578.42Z" fill="#8100f2"/><path d="M727.57,619.59c3.75-1.68,6-4.86,5-7.1-.65-1.45-2.49-2.16-4.73-2L719,595.69l-3,1,4.43,17.09c-1.51,1.55-2.17,3.34-1.53,4.76C720,620.81,723.82,621.27,727.57,619.59Z" fill="#8100f2"/><path d="M668.28,618.39c3.81,1.53,7.64.92,8.56-1.36.59-1.48-.19-3.3-1.84-4.81l4.5-16.6-2.79-1.4-9.2,15.07c-2.16,0-3.91.76-4.48,2.2C662.11,613.77,664.46,616.86,668.28,618.39Z" fill="#8100f2"/><path d="M629.56,575.06c1.82,3.69,5.08,5.79,7.29,4.7,1.42-.7,2.06-2.57,1.83-4.8l14.44-9.35L652,562.7l-16.9,5.07c-1.61-1.45-3.42-2-4.81-1.35C628.05,567.51,627.74,571.38,629.56,575.06Z" fill="#8100f2"/><path d="M630.79,515.52c-1.49,3.83-.83,7.65,1.46,8.54,1.48.58,3.29-.22,4.78-1.89l20.15,5.6,1.37-2.81-18.66-10.31c0-2.16-.81-3.9-2.26-4.46C635.34,509.3,632.28,511.69,630.79,515.52Z" fill="#8100f2"/><path d="M672,475.24c-3.7,1.78-5.85,5-4.79,7.23.69,1.44,2.55,2.09,4.78,1.9l10.85,17.87,2.93-1.11-6.55-20.29c1.47-1.59,2.08-3.39,1.41-4.79C679.57,473.83,675.71,473.47,672,475.24Z" fill="#8100f2"/><g opacity="0.2"><path d="M731.56,476.84c-3.89-1.31-7.68-.48-8.47,1.85-.51,1.5.37,3.27,2.11,4.69l-3.57,16.82,2.87,1.25,8.34-15.56c2.16-.11,3.85-1,4.35-2.45C738,481.11,735.46,478.16,731.56,476.84Z"/><path d="M772.41,520.46c-1.53-3.82-4.62-6.16-6.9-5.25-1.48.59-2.25,2.41-2.2,4.65l-15.12,8.21.92,3,17.25-3.76c1.49,1.57,3.25,2.3,4.69,1.72C773.33,528.1,773.94,524.27,772.41,520.46Z"/><path d="M770,578.42c1.54-3.81.94-7.64-1.34-8.56-1.48-.6-3.29.17-4.81,1.82l-16.59-4.55-1.41,2.79,15,9.24c0,2.17.75,3.91,2.19,4.49C765.36,584.58,768.46,582.23,770,578.42Z"/><path d="M727.57,619.59c3.75-1.68,6-4.86,5-7.1-.65-1.45-2.49-2.16-4.73-2L719,595.69l-3,1,4.43,17.09c-1.51,1.55-2.17,3.34-1.53,4.76C720,620.81,723.82,621.27,727.57,619.59Z"/><path d="M668.28,618.39c3.81,1.53,7.64.92,8.56-1.36.59-1.48-.19-3.3-1.84-4.81l4.5-16.6-2.79-1.4-9.2,15.07c-2.16,0-3.91.76-4.48,2.2C662.11,613.77,664.46,616.86,668.28,618.39Z"/><path d="M629.56,575.06c1.82,3.69,5.08,5.79,7.29,4.7,1.42-.7,2.06-2.57,1.83-4.8l14.44-9.35L652,562.7l-16.9,5.07c-1.61-1.45-3.42-2-4.81-1.35C628.05,567.51,627.74,571.38,629.56,575.06Z"/><path d="M630.79,515.52c-1.49,3.83-.83,7.65,1.46,8.54,1.48.58,3.29-.22,4.78-1.89l20.15,5.6,1.37-2.81-18.66-10.31c0-2.16-.81-3.9-2.26-4.46C635.34,509.3,632.28,511.69,630.79,515.52Z"/><path d="M672,475.24c-3.7,1.78-5.85,5-4.79,7.23.69,1.44,2.55,2.09,4.78,1.9l10.85,17.87,2.93-1.11-6.55-20.29c1.47-1.59,2.08-3.39,1.41-4.79C679.57,473.83,675.71,473.47,672,475.24Z"/></g><path d="M790.71,534.64c-1.93,0-3.65,1.9-4.75,4.86l-30.38,4.41A53.94,53.94,0,0,0,741,513.14l25.69-19.42c3,1.57,5.77,1.84,7.23.44,2.41-2.31.42-8.29-4.45-13.36s-10.76-7.29-13.17-5c-1.39,1.33-1.31,3.89,0,6.79l-20.2,26a52.65,52.65,0,0,0-29.68-11.71l3.62-30.5c3.22-1.1,5.33-2.89,5.33-4.92,0-3.33-5.7-6-12.72-6s-12.72,2.71-12.72,6c0,1.93,1.9,3.65,4.86,4.75l4.46,30.67a52.61,52.61,0,0,0-30.37,12.22l-18.45-23.3c1.52-3,1.78-5.72.42-7.06-2.26-2.21-8.07.06-13,5.07s-7.09,10.87-4.83,13.08c1.3,1.28,3.79,1.06,6.61-.32L663.73,514a54,54,0,0,0-14.06,32.2l-28.31-3.55c-1-3.22-2.74-5.33-4.65-5.33-3.16,0-5.72,5.7-5.72,12.72s2.56,12.72,5.72,12.72c1.82,0,3.44-1.9,4.49-4.86l28.36-4.36a54.05,54.05,0,0,0,12,31.34l-21.23,16.33c-3-1.57-5.69-1.87-7.06-.52-2.24,2.22,0,8.07,4.89,13.06s10.77,7.24,13,5c1.29-1.29,1.11-3.78-.23-6.62l16-21.57a52.7,52.7,0,0,0,32.9,13.91l-3.29,26.23c-3.23,1-5.33,2.73-5.33,4.65,0,3.15,5.69,5.71,12.72,5.71s12.72-2.56,12.72-5.71c0-1.83-1.91-3.45-4.87-4.5l-4.07-26.53a52.82,52.82,0,0,0,32.56-15.44l16.83,21.54c-1.53,3-1.82,5.71-.46,7.06,2.24,2.23,8.07,0,13-5s7.16-10.82,4.92-13.05c-1.29-1.28-3.79-1.08-6.62.28l-22.73-16.58A54.06,54.06,0,0,0,756,551.21l29.81,3.53c1.1,3.23,2.89,5.33,4.92,5.33,3.33,0,6-5.69,6-12.72S794,534.64,790.71,534.64Z" fill="#8100f2"/><rect x="159.22" y="368.61" width="47.05" height="57.86" rx="13.95" fill="#8100f2"/><rect x="159.22" y="368.61" width="47.05" height="57.86" rx="13.95" fill="#fff" opacity="0.5"/><path d="M125.2,350.49h0a22.57,22.57,0,0,1,22.57,22.57v41a12.45,12.45,0,0,1-12.45,12.45H115.08A12.45,12.45,0,0,1,102.63,414v-41a22.57,22.57,0,0,1,22.57-22.57Z" fill="#8100f2"/><path d="M125.2,350.49h0a22.57,22.57,0,0,1,22.57,22.57v41a12.45,12.45,0,0,1-12.45,12.45H115.08A12.45,12.45,0,0,1,102.63,414v-41a22.57,22.57,0,0,1,22.57-22.57Z" fill="#fff" opacity="0.5"/><path d="M407.37,426.48v26.39H45.78a166.32,166.32,0,0,1,4.31-26.39Z" fill="#fff"/><path d="M466.7,269.58v23.84H136.77a258.78,258.78,0,0,0,12.46-23.84Z" fill="#fff"/><path d="M475.73,89.28V633.84c-14.16-2-25.06-3.16-33.38-3.81V72.47A240.45,240.45,0,0,1,475.59,89.2Z" fill="#fff"/><path d="M150.32,549.93v44a2.64,2.64,0,0,1-2.64,2.64H95.75c-1.37-1.62-2.68-3.23-4-4.82l-.52-.67-.14-.17-.51-.66c-.77-1-1.53-2-2.26-3-.18-.24-.37-.48-.55-.73l-.72-1-.37-.51V547.3h61A2.63,2.63,0,0,1,150.32,549.93Z" fill="#8100f2"/><path d="M150.32,549.93v44a2.64,2.64,0,0,1-2.64,2.64H95.75c-1.37-1.62-2.68-3.23-4-4.82l-.52-.67-.14-.17-.51-.66c-.77-1-1.53-2-2.26-3-.18-.24-.37-.48-.55-.73l-.72-1-.37-.51V547.3h61A2.63,2.63,0,0,1,150.32,549.93Z" fill="#fff" opacity="0.5"/><path d="M86.73,547.3v37.79l-.48-.67,0,0-.81-1.14-.72-1-.42-.61c-.68-1-1.35-2-2-2.9l-.57-.86c-.38-.57-.75-1.14-1.11-1.7-.77-1.18-1.51-2.35-2.21-3.49-.29-.46-.57-.92-.85-1.38-.51-.84-1-1.66-1.48-2.47l-.83-1.43-.43-.75-.41-.73-.81-1.44-.39-.71-.75-1.38-.33-.63V550.31a3,3,0,0,1,3-3Z" fill="#8100f2"/><path d="M86.73,547.3v37.79l-.48-.67,0,0-.81-1.14-.72-1-.42-.61c-.68-1-1.35-2-2-2.9l-.57-.86c-.38-.57-.75-1.14-1.11-1.7-.77-1.18-1.51-2.35-2.21-3.49-.29-.46-.57-.92-.85-1.38-.51-.84-1-1.66-1.48-2.47l-.83-1.43-.43-.75-.41-.73-.81-1.44-.39-.71-.75-1.38-.33-.63V550.31a3,3,0,0,1,3-3Z" fill="#fff" opacity="0.6"/><rect x="115.67" y="563.51" width="26.07" height="17.49" rx="8.74" fill="#fff" opacity="0.5"/><rect x="97.54" y="554.93" width="44.19" height="5.4" rx="2.7" fill="#fff" opacity="0.5"/><rect x="158.9" y="523.13" width="56.91" height="75.03" rx="10.58" fill="#8100f2"/><rect x="158.9" y="523.13" width="56.91" height="75.03" rx="10.92" fill="#fff" opacity="0.5"/><rect x="158.9" y="546.34" width="56.91" height="28.93" fill="#fff" opacity="0.5"/><rect x="164.63" y="551.43" width="22.89" height="4.13" rx="2.07" fill="#fff" opacity="0.5"/><rect x="162.72" y="557.79" width="29.89" height="5.72" rx="2.86" fill="#fff" opacity="0.5"/><rect x="165.9" y="498.02" width="48.33" height="20.98" rx="4.31" fill="#8100f2"/><rect x="165.9" y="498.02" width="48.33" height="20.98" rx="4.21" fill="#fff" opacity="0.5"/><g opacity="0.5"><rect x="169.08" y="500.56" width="2.86" height="15.58" fill="#fff"/><rect x="174.67" y="500.56" width="2.86" height="15.58" fill="#fff"/><rect x="180.25" y="500.56" width="2.86" height="15.58" fill="#fff"/><rect x="185.84" y="500.56" width="2.86" height="15.58" fill="#fff"/><rect x="191.42" y="500.56" width="2.86" height="15.58" fill="#fff"/><rect x="197.01" y="500.56" width="2.86" height="15.58" fill="#fff"/><rect x="202.6" y="500.56" width="2.86" height="15.58" fill="#fff"/><rect x="208.18" y="500.56" width="2.86" height="15.58" fill="#fff"/></g><ellipse cx="354.25" cy="239.13" rx="53.1" ry="60.41" fill="#f9b499"/><path d="M318.63,283.91l-8.2,20.61a32.36,32.36,0,0,0-.16,23.75c3.83,9.7,12.92,20.31,34.29,22,0,0,15.56,3.06,19.49-14.59a16.5,16.5,0,0,0-1.6-11.34c-3.31-6.22-8.51-17.74-5.95-24.78A48.33,48.33,0,0,1,318.63,283.91Z" fill="#f7a48b"/><path d="M388.11,439.48c-32.86,43.51-64.86,69.4-87.42,84a199.61,199.61,0,0,1-25.16,14.07,14.35,14.35,0,0,1-17.63-4.65c-22.28-30.83-33.52-147.08-33.52-147.08-6.59-54.4,8.12-72.44,18.61-78.43a20.81,20.81,0,0,1,9.37-3s15.44-5.95,28.85,11.1l0,0c8,9.84,14.69,27.62,15.3,59.45L298.46,459l9.63-7.7,47-37.54a4.65,4.65,0,0,1,4.27-.8,67.43,67.43,0,0,1,9.12,3.51c12.67,6,18,14,20.11,18.17A4.65,4.65,0,0,1,388.11,439.48Z" fill="#8100f2"/><path d="M470.17,317.18c-16.2,28.3-50.26,75-50.26,75,11.76,24.49-9.86,60.73-9.86,60.73-6.67,10.17-3.81,37.2-3.81,37.2l1.27,63.59a20.63,20.63,0,0,1-6,15.94c-13.92.68-30.17,3.51-39,5.22a81.26,81.26,0,0,1-15.8,1.5c-19.44-.08-43.75-2.32-43.75-2.32-55-7.94-67.09-23.21-67.09-23.21-11.44-10.17-2.06-97.4-2.06-97.4-5.88-28.41-10.25-75.88-10.25-75.88l67-44.25L495,259C502,273,470.17,317.18,470.17,317.18Z" fill="#8100f2"/><path d="M300.69,523.52a199.61,199.61,0,0,1-25.16,14.07,14.35,14.35,0,0,1-17.63-4.65c-22.28-30.83-33.52-147.08-33.52-147.08-6.59-54.4,8.12-72.44,18.61-78.43h0s-10.35,26-3,100.35c0,0,7.94,102.7,27,115.73C267,523.52,275.89,531.79,300.69,523.52Z" opacity="0.2"/><path d="M401.49,569.67a29.32,29.32,0,0,1-4.76,4h0C379.82,585.2,349,585.2,349,585.2c-79.8,4.14-92.52-1-92.52-1-41-7.63-40.73-26.59-40.73-26.59l0-22.37c-.63-93.8,7.72-157.71,7.72-157.71s4.37,47.47,10.25,75.88c0,0-9.38,87.23,2.06,97.4,0,0,12.08,15.27,67.09,23.21,0,0,24.31,2.24,43.75,2.32a81.26,81.26,0,0,0,15.8-1.5C371.32,573.18,387.57,570.35,401.49,569.67Z" fill="#8100f2"/><path d="M401.49,569.67a29.32,29.32,0,0,1-4.76,4h0C379.82,585.2,349,585.2,349,585.2c-79.8,4.14-92.52-1-92.52-1-41-7.63-40.73-26.59-40.73-26.59l0-22.37c-.63-93.8,7.72-157.71,7.72-157.71s4.37,47.47,10.25,75.88c0,0-9.38,87.23,2.06,97.4,0,0,12.08,15.27,67.09,23.21,0,0,24.31,2.24,43.75,2.32a81.26,81.26,0,0,0,15.8-1.5C371.32,573.18,387.57,570.35,401.49,569.67Z" opacity="0.2"/><path d="M308.09,451.28l-9.63,7.7-1.91-83.93c-.61-31.83-7.3-49.61-15.3-59.45,1,1.19,23.24,27.08,22.93,56.58Z" opacity="0.2"/><path d="M406.24,490.14s-20.53-10.23-77.66,12.69c.37-.31,24.18-20.07,39.89-39.2,0,0,26-3.7,41.58-10.69C403.38,463.11,406.24,490.14,406.24,490.14Z" opacity="0.2"/><path d="M403.38,631c-29.57-1-124.95,24.48-124.95,24.48a350.31,350.31,0,0,1-69.59,5.82l.28-31.58c-1.91-51.18,6.64-72.05,6.64-72.05s-.28,19,40.73,26.59c0,0,12.72,5.09,92.52,1,0,0,30.81,0,47.72-11.55h0Z" fill="#5b5982"/><path d="M328.29,586.13s6.91,37.35,7.46,55.41l13.4-2.88s-1.92-33.19-5.64-53.18Z" opacity="0.2"/><path d="M409.59,237.38c-3-5.41-11.3-7-11.3-7-1-17.48-8-19.39-8-19.39,4.13,7.63,1.47,18.18,1.47,18.18-4.88-18.71-14.22-29.63-14.22-29.63l4.8,15c4.14,13.35-5.62,9.48-5.62,9.48l-21.33-7.26c-1.45-.17-2.7-.35-3.76-.54-6.77-1.21-6.17-2.64-6.17-2.64-1.59-14-4.45-14-4.45-14,.64,23.21-14,21.31-14,21.31-11.87,1.87-6.24-15.91-6-16.52v0c-8.58,5.73-4.13,18.44-4.13,18.44-11.45,4.77-13.41-6-13.41-6v0c-10.22,46.41,15.15,67.19,15.15,67.19-1.77,4.24-6.95,17.48-6.95,17.48L294,310.5l2.3,1.06L285,320.34c-9-14-21.66-16.49-21.66-16.49-10.33-50.86,0-87.14,0-87.14,24.33-67.4,70.11-47.37,70.11-47.37,21.62-14,45.15-1.27,45.15-1.27,22.26,13,30.2,29.72,32.49,43.5A57.46,57.46,0,0,1,409.59,237.38Z" fill="#5b5982"/><path d="M316.9,222.75c-11.45,4.77-13.41-6-13.41-6s-.26-9,7.68-17.54C311,199.57,298.63,221.49,316.9,222.75Z" opacity="0.2"/><path d="M327.07,220.85c-11.87,1.87-6.24-15.91-6-16.52C321,204.86,319.29,218,327.07,220.85Z" opacity="0.2"/><path d="M351.68,216.17c-6.77-1.21-6.17-2.64-6.17-2.64-1.59-14-4.45-14-4.45-14s.64-3.81-2.54-9.22C338.52,190.32,349.21,192.83,351.68,216.17Z" opacity="0.2"/><path d="M420.2,374.89c-7.54,28.1-31.14,22.71-31.14,22.71-9.56-1.43-15.05-5.16-18.09-10.31-5.17-8.71-3.34-21.46-2.5-33.84,1.34-19.69-4-20.74-4-20.74l35.81-13.18,6.38-2.35c6.77,7.89,11.14,21.14,13.54,30.37A53.45,53.45,0,0,1,420.2,374.89Z" fill="#5b5982"/><path d="M371,387.29c-5.17-8.71-3.34-21.46-2.5-33.84,1.34-19.69-4-20.74-4-20.74l35.81-13.18a25.15,25.15,0,0,0,7.32,18.06,22.54,22.54,0,0,1,6.17,12.14C417.9,376.3,371,387.29,371,387.29Z" opacity="0.2"/><path d="M458.76,297.31s-9.82,24.83-39.76,46c0,0-4.06-15.36-12.38-26.17l33.12-12.09A181.34,181.34,0,0,0,458.76,297.31Z" opacity="0.1"/><path d="M294,310.5l-20.83,18.83c-17.34-8.4-30.41-3.14-35.65-.15a1.2,1.2,0,0,0,.37,2.21l10.9,2.16c5.48,2.14.24,2.62.24,2.62l-29.39,1.72a4,4,0,0,0-3.57,2.67h0a4,4,0,0,0,3.18,5.34l16.1,2.51c-3.44,8.66,6.47,7.46,6.47,7.46-1.78,3.87,4.37,7,4.37,7,4.57,9.62,36.89-10.79,36.89-10.79l25.74-3.66C314.85,315.68,294,310.5,294,310.5Z" fill="#f9b499"/><path d="M415.74,381.1a13.66,13.66,0,0,1-3.73,7.15,13.73,13.73,0,0,1,3.73-7.15Z" fill="none" stroke="red" stroke-miterlimit="10"/><path d="M406.37,378a11.61,11.61,0,0,1-3.43,6.57,11.64,11.64,0,0,1,3.43-6.57Z" fill="none" stroke="red" stroke-miterlimit="10"/><path d="M399.06,374.19a11.52,11.52,0,0,1-3.42,6.54,11.58,11.58,0,0,1,3.42-6.54Z" fill="none" stroke="red" stroke-miterlimit="10"/><path d="M422.23,397l-10.48,3.69c16.64-16,4-19.63,4-19.63h0c-1.45-9.2-9.37-3.12-9.37-3.12-.44-4.24-7.31-3.79-7.31-3.79-8.85-5.94-26.24,28.09-26.24,28.09l-20.28,16.27c15.6,29.84,32.07,25.05,32.07,25.05l8.33-26.81c19.19-1.61,27.75-12.8,30.74-18A1.2,1.2,0,0,0,422.23,397Z" fill="#f9b499"/><path d="M411.07,211.57C383.47,153.65,338.52,174,338.52,174l-5.09-4.62c21.62-14,45.15-1.27,45.15-1.27C400.84,181.05,408.78,197.79,411.07,211.57Z" opacity="0.2"/><path d="M297.32,236.76s-5.61,47.83,0,72l14.36-7.4,6.95-17.48s-17.93-14.5-17.29-46.61A11.38,11.38,0,0,1,297.32,236.76Z" opacity="0.2"/><path d="M400.24,319.53a2.24,2.24,0,0,0,.42,2,11.66,11.66,0,0,0,3.35,3.06,41.53,41.53,0,0,0,5.88,3.16,23.5,23.5,0,0,1,15.27,20.62,22.4,22.4,0,0,1-2.39,11.43q-.39.75-.81,1.47a23.49,23.49,0,0,0-6.51-29.8,30.14,30.14,0,0,0-5.77-3.28,42.16,42.16,0,0,1-5.84-3.34,11.84,11.84,0,0,1-3.28-3.26,2.27,2.27,0,0,1-.32-2Z" fill="#5b5982"/><path d="M400.24,319.53a2.24,2.24,0,0,0,.42,2,11.66,11.66,0,0,0,3.35,3.06,41.53,41.53,0,0,0,5.88,3.16,23.5,23.5,0,0,1,15.27,20.62,22.4,22.4,0,0,1-2.39,11.43q-.39.75-.81,1.47a23.49,23.49,0,0,0-6.51-29.8,30.14,30.14,0,0,0-5.77-3.28,42.16,42.16,0,0,1-5.84-3.34,11.84,11.84,0,0,1-3.28-3.26,2.27,2.27,0,0,1-.32-2Z" opacity="0.2"/><path d="M258.44,304c0-.06-2.62-6.61-3.6-19.33-.91-11.71-.6-31.22,6-57.66l.62.15c-6.61,26.36-6.92,45.8-6,57.46,1,12.62,3.53,19.08,3.56,19.15Z" fill="#5b5982"/><path d="M664.11,581s36.24,21,63.27-11.45c0,0,23.21-29.25,1.59-60.41,0,0,23,13.43,22.57,41.48a50.75,50.75,0,0,1-29.06,44.8C707.65,602.49,686.67,604.39,664.11,581Z" opacity="0.2"/><ellipse cx="723.73" cy="524.04" rx="8.42" ry="15.19" transform="translate(-158.44 382) rotate(-26.76)" opacity="0.2"/><ellipse cx="684.36" cy="521.41" rx="9.22" ry="4.93" transform="translate(-109.37 853.38) rotate(-60)" opacity="0.2"/><ellipse cx="713.61" cy="566.56" rx="4.93" ry="9.22" transform="translate(-163.4 813.71) rotate(-54.19)" opacity="0.2"/><circle cx="703.85" cy="539.35" r="3.82" opacity="0.2"/><ellipse cx="683.82" cy="575.59" rx="10.81" ry="3.5" opacity="0.2"/><ellipse cx="683.02" cy="550.79" rx="2.38" ry="5.4" transform="translate(-193.79 517.88) rotate(-36.73)" opacity="0.2"/><circle cx="661.88" cy="549.84" r="4.13" opacity="0.2"/><path d="M292.51,36.33c-2.69-.91-5.31-.34-5.86,1.27-.35,1,.26,2.26,1.46,3.24l-2.47,11.62,2,.86,5.75-10.74c1.5-.08,2.67-.68,3-1.7C296.93,39.28,295.19,37.24,292.51,36.33Z" fill="#8100f2"/><path d="M320.71,66.45c-1-2.63-3.19-4.26-4.76-3.62-1,.41-1.56,1.66-1.52,3.21L304,71.71l.64,2.06,11.91-2.6c1,1.09,2.24,1.59,3.24,1.19C321.35,71.73,321.77,69.08,320.71,66.45Z" fill="#8100f2"/><path d="M319.05,106.48c1.06-2.63.65-5.28-.93-5.92-1-.41-2.27.13-3.32,1.26l-11.45-3.14-1,1.93L312.76,107c0,1.49.52,2.7,1.51,3.1C315.85,110.73,318,109.11,319.05,106.48Z" fill="#8100f2"/><path d="M289.75,134.91c2.59-1.16,4.12-3.36,3.43-4.91-.45-1-1.72-1.49-3.27-1.39l-6.07-10.21-2,.72,3.06,11.8c-1,1.07-1.5,2.3-1.06,3.28C284.49,135.75,287.16,136.07,289.75,134.91Z" fill="#8100f2"/><path d="M248.8,134.08c2.64,1,5.28.63,5.91-.94.41-1-.12-2.28-1.27-3.32l3.12-11.46-1.94-1-6.35,10.4c-1.49,0-2.7.53-3.09,1.52C244.54,130.89,246.17,133,248.8,134.08Z" fill="#8100f2"/><path d="M222.07,104.16c1.25,2.54,3.51,4,5,3.24,1-.48,1.42-1.77,1.27-3.31l10-6.46-.8-2-11.67,3.5c-1.11-1-2.36-1.41-3.32-.93C221,98.94,220.81,101.61,222.07,104.16Z" fill="#8100f2"/><path d="M222.92,63c-1,2.64-.58,5.29,1,5.9,1,.4,2.27-.15,3.3-1.31l13.92,3.87.94-1.94L229.2,62.44c0-1.49-.56-2.69-1.56-3.08C226.06,58.75,223.94,60.39,222.92,63Z" fill="#8100f2"/><path d="M251.37,35.23c-2.55,1.22-4,3.46-3.3,5,.47,1,1.76,1.44,3.3,1.31l7.49,12.34,2-.77-4.52-14c1-1.09,1.44-2.34,1-3.31C256.6,34.25,253.93,34,251.37,35.23Z" fill="#8100f2"/><g opacity="0.2"><path d="M292.51,36.33c-2.69-.91-5.31-.34-5.86,1.27-.35,1,.26,2.26,1.46,3.24l-2.47,11.62,2,.86,5.75-10.74c1.5-.08,2.67-.68,3-1.7C296.93,39.28,295.19,37.24,292.51,36.33Z"/><path d="M320.71,66.45c-1-2.63-3.19-4.26-4.76-3.62-1,.41-1.56,1.66-1.52,3.21L304,71.71l.64,2.06,11.91-2.6c1,1.09,2.24,1.59,3.24,1.19C321.35,71.73,321.77,69.08,320.71,66.45Z"/><path d="M319.05,106.48c1.06-2.63.65-5.28-.93-5.92-1-.41-2.27.13-3.32,1.26l-11.45-3.14-1,1.93L312.76,107c0,1.49.52,2.7,1.51,3.1C315.85,110.73,318,109.11,319.05,106.48Z"/><path d="M289.75,134.91c2.59-1.16,4.12-3.36,3.43-4.91-.45-1-1.72-1.49-3.27-1.39l-6.07-10.21-2,.72,3.06,11.8c-1,1.07-1.5,2.3-1.06,3.28C284.49,135.75,287.16,136.07,289.75,134.91Z"/><path d="M248.8,134.08c2.64,1,5.28.63,5.91-.94.41-1-.12-2.28-1.27-3.32l3.12-11.46-1.94-1-6.35,10.4c-1.49,0-2.7.53-3.09,1.52C244.54,130.89,246.17,133,248.8,134.08Z"/><path d="M222.07,104.16c1.25,2.54,3.51,4,5,3.24,1-.48,1.42-1.77,1.27-3.31l10-6.46-.8-2-11.67,3.5c-1.11-1-2.36-1.41-3.32-.93C221,98.94,220.81,101.61,222.07,104.16Z"/><path d="M222.92,63c-1,2.64-.58,5.29,1,5.9,1,.4,2.27-.15,3.3-1.31l13.92,3.87.94-1.94L229.2,62.44c0-1.49-.56-2.69-1.56-3.08C226.06,58.75,223.94,60.39,222.92,63Z"/><path d="M251.37,35.23c-2.55,1.22-4,3.46-3.3,5,.47,1,1.76,1.44,3.3,1.31l7.49,12.34,2-.77-4.52-14c1-1.09,1.44-2.34,1-3.31C256.6,34.25,253.93,34,251.37,35.23Z"/></g><path d="M333.35,76.24c-1.33,0-2.52,1.32-3.28,3.36l-21,3.05A37.26,37.26,0,0,0,299,61.4L316.75,48c2.09,1.08,4,1.27,5,.3,1.66-1.6.28-5.73-3.08-9.22s-7.43-5-9.09-3.45c-1,.93-.91,2.69,0,4.7l-14,17.93a36.33,36.33,0,0,0-20.5-8.09l2.5-21.06c2.23-.76,3.68-2,3.68-3.4,0-2.3-3.93-4.17-8.78-4.17s-8.78,1.87-8.78,4.17c0,1.33,1.31,2.52,3.36,3.28l3.07,21.18a36.41,36.41,0,0,0-21,8.44L236.43,42.51c1-2.09,1.23-3.95.29-4.88-1.56-1.52-5.57,0-9,3.51s-4.89,7.5-3.34,9c.9.88,2.62.73,4.57-.22l16.68,12A37.35,37.35,0,0,0,236,84.19L216.4,81.74c-.72-2.22-1.89-3.68-3.21-3.68-2.18,0-3.95,3.93-3.95,8.78s1.77,8.79,3.95,8.79c1.26,0,2.38-1.32,3.1-3.36l19.58-3a37.35,37.35,0,0,0,8.3,21.64l-14.66,11.28c-2.08-1.08-3.93-1.29-4.87-.36-1.55,1.54,0,5.57,3.37,9s7.44,5,9,3.46c.89-.88.76-2.6-.16-4.56l11-14.9a36.45,36.45,0,0,0,22.72,9.61l-2.27,18.11c-2.23.71-3.68,1.88-3.68,3.21,0,2.18,3.93,3.94,8.78,3.94s8.78-1.76,8.78-3.94c0-1.26-1.31-2.38-3.36-3.1L276,124.34a36.46,36.46,0,0,0,22.48-10.66l11.63,14.88c-1.06,2.08-1.26,3.94-.32,4.87,1.55,1.54,5.57,0,9-3.44s4.94-7.48,3.4-9c-.9-.88-2.62-.74-4.57.2L302,109.72a37.31,37.31,0,0,0,7.42-22L330,90.13c.76,2.22,2,3.68,3.4,3.68,2.3,0,4.17-3.94,4.17-8.79S335.65,76.24,333.35,76.24Z" fill="#8100f2"/><path d="M245.92,108.26s25,14.49,43.7-7.91c0,0,16-20.2,1.09-41.71,0,0,15.9,9.27,15.59,28.64a35.05,35.05,0,0,1-20.07,30.94C276,123.1,261.5,124.41,245.92,108.26Z" opacity="0.2"/><ellipse cx="287.1" cy="68.92" rx="5.81" ry="10.49" transform="translate(-0.28 136.65) rotate(-26.76)" opacity="0.2"/><ellipse cx="259.91" cy="67.11" rx="6.37" ry="3.4" transform="translate(71.84 258.64) rotate(-60)" opacity="0.2"/><ellipse cx="280.11" cy="98.28" rx="3.4" ry="6.37" transform="matrix(0.59, -0.81, 0.81, 0.59, 36.5, 267.92)" opacity="0.2"/><circle cx="273.37" cy="79.49" r="2.63" opacity="0.2"/><ellipse cx="259.54" cy="104.52" rx="7.46" ry="2.42" opacity="0.2"/><ellipse cx="258.99" cy="87.4" rx="1.65" ry="3.73" transform="translate(-0.85 172.25) rotate(-36.73)" opacity="0.2"/><circle cx="244.39" cy="86.74" r="2.85" opacity="0.2"/><path d="M518.79,506.44c-.18-1.94-1.27-3.43-2.43-3.32-.75.07-1.35.79-1.62,1.82l-8,1.69,0,1.49,8.35.61a2.12,2.12,0,0,0,1.9,1.42C518.18,510,519,508.38,518.79,506.44Z" fill="#b3b3b3"/><path d="M507.76,532.55c1.36-1.4,1.78-3.19.94-4a2.15,2.15,0,0,0-2.43,0l-6.48-5-1.12,1,5,6.75a2.12,2.12,0,0,0,.16,2.37C504.62,534.42,506.4,533.94,507.76,532.55Z" fill="#b3b3b3"/><path d="M482.17,542.67c1.95-.07,3.49-1.07,3.45-2.23,0-.76-.71-1.39-1.71-1.73l-1.23-8.07-1.48-.07-1.11,8.29c-.94.42-1.55,1.08-1.52,1.82C478.61,541.85,480.22,542.74,482.17,542.67Z" fill="#b3b3b3"/><path d="M456.15,532.21c1.45,1.3,3.26,1.65,4,.79a2.18,2.18,0,0,0,0-2.44l4.71-6.66-1-1.08L457.29,528a2.11,2.11,0,0,0-2.35.25C454.16,529.15,454.7,530.91,456.15,532.21Z" fill="#b3b3b3"/><path d="M445.25,506.28c.07,2,1.07,3.49,2.24,3.45.75,0,1.39-.72,1.72-1.73l8.07-1.24.07-1.48L449,504.19c-.41-.94-1.08-1.54-1.81-1.52C446.06,502.72,445.17,504.33,445.25,506.28Z" fill="#b3b3b3"/><path d="M456.57,481.15c-1.25,1.5-1.53,3.32-.64,4.06a2.17,2.17,0,0,0,2.44-.13l6.84,4.46,1-1.06-5.46-6.35a2.13,2.13,0,0,0-.34-2.34C459.55,479,457.81,479.65,456.57,481.15Z" fill="#b3b3b3"/><path d="M482.61,470.21c-1.94.09-3.48,1.11-3.42,2.28,0,.75.73,1.38,1.74,1.71l1.46,9.81,1.48.05.87-10.08c.94-.42,1.54-1.1,1.5-1.83C486.18,471,484.56,470.12,482.61,470.21Z" fill="#b3b3b3"/><path d="M508,480.31c-1.48-1.26-3.3-1.57-4.05-.68a2.16,2.16,0,0,0,.1,2.44l-5.66,8.14,1,1.06,7.54-6.75a2.13,2.13,0,0,0,2.35-.31C510.08,483.32,509.49,481.58,508,480.31Z" fill="#b3b3b3"/><path d="M505.14,543.21c-.37-.84-1.53-1.21-3-1.12l-7.77-12.32a25.65,25.65,0,0,0,10.53-12.26l13.36,7.4c-.09,1.61.32,2.85,1.21,3.22,1.46.59,3.67-1.42,4.93-4.51s1.09-6.07-.38-6.67c-.85-.34-1.94.19-3,1.29l-15.14-3.75a25,25,0,0,0-.65-15.12l13.92-4.31c1.1,1.18,2.28,1.75,3.16,1.36,1.45-.64,1.52-3.63.17-6.68s-3.62-5-5.07-4.34c-.84.37-1.21,1.52-1.12,3l-12.43,7.84a25,25,0,0,0-11.15-10.81L499.27,473c1.6.08,2.82-.32,3.14-1.18.52-1.4-1.58-3.48-4.7-4.65s-6.08-1-6.6.43c-.3.81.27,1.84,1.41,2.8l-2.88,13.83a25.61,25.61,0,0,0-16.67.1l-3.91-13c1.19-1.07,1.78-2.21,1.41-3-.61-1.37-3.57-1.38-6.61,0s-5,3.56-4.42,4.93c.36.79,1.49,1.12,3,1l7.35,11.45a25.59,25.59,0,0,0-11.27,11.25l-11.17-6.06c.1-1.61-.29-2.83-1.13-3.16-1.4-.54-3.51,1.53-4.72,4.64s-1.06,6.06.33,6.6c.81.32,1.85-.25,2.82-1.37l12.43,2.77a25,25,0,0,0,.31,16.94l-12,3.63c-1.07-1.2-2.21-1.78-3-1.41-1.37.6-1.38,3.56,0,6.61s3.56,5,4.93,4.41c.79-.35,1.13-1.49,1-3L459,520.66a25.05,25.05,0,0,0,13,11.14l-6.09,11.44c-1.6-.08-2.82.31-3.15,1.16-.53,1.4,1.56,3.5,4.67,4.69s6.07,1,6.61-.39c.3-.81-.27-1.85-1.4-2.81l2.81-13a25.66,25.66,0,0,0,15.9-1.49l4.21,13.6c-1.19,1.1-1.76,2.28-1.37,3.16.65,1.44,3.64,1.52,6.68.17S505.78,544.65,505.14,543.21Z" fill="#ccc"/><path d="M460.65,497.27S458.54,517,477.8,522.49c0,0,17.15,4.42,26.49-11,0,0-1.38,12.57-13.63,17.78a24.06,24.06,0,0,1-25-4C459.72,520.28,454.86,511.55,460.65,497.27Z" fill="#b3b3b3"/><ellipse cx="496.83" cy="512.13" rx="7.2" ry="3.99" transform="translate(-214.14 572.56) rotate(-50.73)" fill="#b3b3b3"/><ellipse cx="490.38" cy="494.56" rx="2.34" ry="4.37" transform="matrix(0.11, -0.99, 0.99, 0.11, -52.99, 930.24)" fill="#b3b3b3"/><ellipse cx="476.45" cy="515.94" rx="4.37" ry="2.34" transform="translate(-126.32 876.31) rotate(-78.15)" fill="#b3b3b3"/><circle cx="486.36" cy="506.47" r="1.81" fill="#b3b3b3"/><ellipse cx="466.79" cy="504.77" rx="1.66" ry="5.13" transform="translate(-164.79 233.13) rotate(-23.97)" fill="#b3b3b3"/><ellipse cx="477.39" cy="499.65" rx="2.56" ry="1.13" transform="translate(-191.97 671.44) rotate(-60.7)" fill="#b3b3b3"/><circle cx="473.73" cy="490.3" r="1.96" fill="#b3b3b3"/><path d="M204.85,164.82v6.67H173.9c0-.1,0-.21.07-.31q.78-3.27,1.65-6.36Z" fill="#5b5982"/><path d="M215.5,143.93v13.48a7.41,7.41,0,0,1-7.41,7.41H175.62a151.2,151.2,0,0,1,11-28.3h21.49A7.41,7.41,0,0,1,215.5,143.93Z" fill="#8100f2"/><path d="M215.5,143.93v13.48a7.41,7.41,0,0,1-7.41,7.41H175.62a151.2,151.2,0,0,1,11-28.3h21.49A7.41,7.41,0,0,1,215.5,143.93Z" fill="#fff" opacity="0.5"/><ellipse cx="246.66" cy="229.83" rx="9.54" ry="8.11" fill="#fff" opacity="0.5"/><path d="M252.73,196H251V179.6a5.25,5.25,0,0,0-5.25-5.25h0a5.24,5.24,0,0,0-5.24,5.25V196h-1.78a3.47,3.47,0,0,0-3.47,3.47v5.47a3.46,3.46,0,0,0,3.47,3.46h14a3.46,3.46,0,0,0,3.46-3.46v-5.47A3.47,3.47,0,0,0,252.73,196Z" fill="#8100f2"/><path d="M252.73,196H251V179.6a5.25,5.25,0,0,0-5.25-5.25h0a5.24,5.24,0,0,0-5.24,5.25V196h-1.78a3.47,3.47,0,0,0-3.47,3.47v5.47a3.46,3.46,0,0,0,3.47,3.46h14a3.46,3.46,0,0,0,3.46-3.46v-5.47A3.47,3.47,0,0,0,252.73,196Z" fill="#fff" opacity="0.5"/><circle cx="300.84" cy="227.05" r="10.33" fill="#f9b499"/><path d="M437.71,305.74,308.09,353.45a68.74,68.74,0,0,0,1-19.16c-2.13-20-15-23.79-15-23.79l133.21-68.67c47.1-24.2,60.55-7.51,63.88-.65h0a13.4,13.4,0,0,1,1,2.56C510.2,284.43,437.71,305.74,437.71,305.74Z" fill="#8100f2"/><path d="M437.71,305.74,308.09,353.45a68.74,68.74,0,0,0,1-19.16l100.21-34.75s81.49-25.63,81.84-58.36h0a13.4,13.4,0,0,1,1,2.56C510.2,284.43,437.71,305.74,437.71,305.74Z" opacity="0.2"/><path d="M235.38,348.39a13.72,13.72,0,0,1,6.86-4.25,13.7,13.7,0,0,1-6.86,4.25Z" fill="#f7a48b"/><path d="M241.85,355.85a11.56,11.56,0,0,1,6.3-3.9,11.69,11.69,0,0,1-6.3,3.9Z" fill="#f7a48b"/><path d="M246.21,362.84a11.54,11.54,0,0,1,6.27-3.89,11.52,11.52,0,0,1-6.27,3.89Z" fill="#f7a48b"/><path d="M368.47,416.45l-99.58,82.91C264.44,480,298.46,459,298.46,459l9.63-7.7,47-37.54a4.65,4.65,0,0,1,4.27-.8A67.43,67.43,0,0,1,368.47,416.45Z" fill="#8100f2"/><path d="M368.47,416.45l-99.58,82.91C264.44,480,298.46,459,298.46,459l9.63-7.7,47-37.54a4.65,4.65,0,0,1,4.27-.8A67.43,67.43,0,0,1,368.47,416.45Z" opacity="0.2"/><path d="M368.47,416.45a149.88,149.88,0,0,0,24.73,16.46l-5,21.66-25.65-4.4-13.39-17.63Z" fill="#8100f2"/><rect x="516.58" y="234.44" width="303.95" height="206.66" rx="70.78" fill="#8100f2"/><rect x="516.58" y="234.44" width="303.95" height="206.66" rx="70.78" fill="#fff" opacity="0.5"/><path d="M757.9,422.35s-6.36-4.14-17.81-17.81A49,49,0,0,0,727.38,395c-4.45-6.67-13.52-8.93-13.52-8.93C703.21,383.88,707,352.4,707,352.4c2.54-19.39-1.27-27.66-1.27-27.66,25.11,7.31,38.79,65.81,38.79,65.81,5.72-10.81-4.46-40.38-4.46-40.38,12.4,2.23,16.54,23.85,16.54,23.85,5.4-22.26-6.68-29.57-6.68-29.57-1.27-4.13,10.49-3.81,10.49-3.81-4.13-3.5-11.11-2.87-11.11-2.87-12.7,1-24.18-13.67-24.18-13.67-3.81-3.18-.95-6-.95-6,13.35-20.66,4.45-21.62,4.45-21.62-1.91,13.67-5.72,13.36-5.72,13.36a2.13,2.13,0,0,1-.9.08l-.23-.05a2.8,2.8,0,0,1-1-.5l-.12-.09c-1.38-1.08-2.71-3.38-3.91-6.12a2.72,2.72,0,0,1-.11-.25l-.27-.65c0-.08-.07-.17-.11-.25-.35-.86-.69-1.74-1-2.64l-.09-.27c-.13-.36-.26-.72-.38-1.08,0-.14-.1-.28-.14-.42l-.39-1.19-.09-.27c-.27-.87-.53-1.72-.77-2.54l-.15-.51c0-.08,0-.16-.07-.24a2,2,0,0,0-.07-.23s0-.06,0-.1l-.12-.4-.09-.32c0-.13-.07-.26-.1-.38-.19-.7-.37-1.34-.52-1.93,0-.19-.09-.37-.14-.54h0c-.09-.35-.17-.68-.25-1l-.21-.9c0-.13-.07-.25-.09-.35h0c0-.07,0-.14-.05-.19h0a.2.2,0,0,0,0-.09h0v0l3.81,24.09c-.67,3.9-5.17,3.64-10.73,1.65-5.51-44.42.79-48.32,1.06-48.47h0a8.63,8.63,0,0,1,3.93-.22s40.7,6.36,57.55,79.48C767.12,342.86,790.33,437.61,757.9,422.35Z" fill="#8100f2"/><path d="M711.5,286.37v-.05A.09.09,0,0,1,711.5,286.37Z" fill="none" stroke="red" stroke-miterlimit="10"/><path d="M711.57,286.67c0-.07,0-.14-.05-.19A1.67,1.67,0,0,1,711.57,286.67Z" fill="none" stroke="red" stroke-miterlimit="10"/><path d="M711.57,286.68c0,.1.06.22.09.35C711.62,286.9,711.59,286.78,711.57,286.68Z" fill="none" stroke="red" stroke-miterlimit="10"/><path d="M711.87,287.93c.08.29.16.62.25,1C712,288.55,712,288.22,711.87,287.93Z" fill="none" stroke="red" stroke-miterlimit="10"/><path d="M750,344.45S762,351.76,756.63,374c0,0-4.14-21.62-16.54-23.85,0,0,10.18,29.57,4.46,40.38,0,0-13.68-58.5-38.79-65.81,0,0,3.81,8.27,1.27,27.66,0,0-3.82,31.48,6.83,33.67,0,0,9.07,2.26,13.52,8.93h0a115.57,115.57,0,0,0-18.54-3.69l-1.48-.12c-9.22-.64-15-14-12.4-32.43,0,0,3.49-24.48,2.86-37.2,0,0-17.81-2.23-24.16-16.53,0,0-5.41,11.44-24.49,16.85,0,0,0,25.75,3.18,38.47,0,0,10.08,30.84-32.79,34.65,0,0,4.84-7.1,12.92-8.85a12.57,12.57,0,0,0,9.67-10.08,27.69,27.69,0,0,0-.29-10.32s-2.86-29.25-.63-40.06c0,0-14.63,0-23.85,26.71,0,0-11.45,25.12-14,38.15,0,0-2.86-11.44,4.45-39.42,0,0-9.54-.64-17.48,23.53,0,0-5.73-21,8.58-31.16l-12.72-3.82s17.17.64,25.76-6.36c0,0,7.94-9.85,14.62-12.4,0,0-13.67-8.26-7.31-25.75,0,0,1.27,15.26,7.63,14,0,0,5.72-9.22,8-24.8,0,0,2.86.32-2.23,21.3,0,0-2.76,12.91,12.25,5.49l1-22.25c1.49-22.48-5.15-25.64-5.15-25.64,11.92,2.51,10.78,33.93,10,45,4.9-2.57,12.19-6.8,16.54-11.14V234.44h13v64.34a165.65,165.65,0,0,0,17.56,10.39v-.05s0-.07,0-.11c-1-8.39-4-39.87,6.78-45h0l.32-.14a5,5,0,0,1,.65-.23c-.27.15-6.57,4.05-1.06,48.47,5.56,2,10.06,2.25,10.73-1.65l-3.81-24.09v0h0a.64.64,0,0,1,0,.09h0s0,.12.05.19h0c0,.1,0,.22.09.35l.21.9c.08.29.16.62.25,1h0c0,.17.09.36.14.54.15.59.33,1.23.52,1.93,0,.12.07.25.1.38l.09.32.12.4s0,.07,0,.1,0,.15.07.23.05.16.07.24l.15.51c.24.82.5,1.67.77,2.54l.09.27.39,1.19c0,.14.09.28.14.42.12.36.25.72.38,1.08l.09.27c.32.9.66,1.78,1,2.64,0,.08.07.17.11.25l.27.65a2.72,2.72,0,0,0,.11.25c1.2,2.74,2.53,5,3.91,6.12l.12.09a2.8,2.8,0,0,0,1,.5l.23.05a2.13,2.13,0,0,0,.9-.08s3.81.31,5.72-13.36c0,0,8.9,1-4.45,21.62,0,0-2.86,2.86.95,6,0,0,11.48,14.63,24.18,13.67,0,0,7-.63,11.11,2.87C760.44,340.64,748.68,340.32,750,344.45Z" fill="#8100f2"/><path d="M750,344.45S762,351.76,756.63,374c0,0-4.14-21.62-16.54-23.85,0,0,10.18,29.57,4.46,40.38,0,0-13.68-58.5-38.79-65.81,0,0,3.81,8.27,1.27,27.66,0,0-3.82,31.48,6.83,33.67,0,0,9.07,2.26,13.52,8.93h0a115.57,115.57,0,0,0-18.54-3.69l-1.48-.12c-9.22-.64-15-14-12.4-32.43,0,0,3.49-24.48,2.86-37.2,0,0-17.81-2.23-24.16-16.53,0,0-5.41,11.44-24.49,16.85,0,0,0,25.75,3.18,38.47,0,0,10.08,30.84-32.79,34.65,0,0,4.84-7.1,12.92-8.85a12.57,12.57,0,0,0,9.67-10.08,27.69,27.69,0,0,0-.29-10.32s-2.86-29.25-.63-40.06c0,0-14.63,0-23.85,26.71,0,0-11.45,25.12-14,38.15,0,0-2.86-11.44,4.45-39.42,0,0-9.54-.64-17.48,23.53,0,0-5.73-21,8.58-31.16l-12.72-3.82s17.17.64,25.76-6.36c0,0,7.94-9.85,14.62-12.4,0,0-13.67-8.26-7.31-25.75,0,0,1.27,15.26,7.63,14,0,0,5.72-9.22,8-24.8,0,0,2.86.32-2.23,21.3,0,0-2.76,12.91,12.25,5.49l1-22.25c1.49-22.48-5.15-25.64-5.15-25.64,11.92,2.51,10.78,33.93,10,45,4.9-2.57,12.19-6.8,16.54-11.14V234.44h13v64.34a165.65,165.65,0,0,0,17.56,10.39v-.05s0-.07,0-.11c-1-8.39-4-39.87,6.78-45h0l.32-.14a5,5,0,0,1,.65-.23c-.27.15-6.57,4.05-1.06,48.47,5.56,2,10.06,2.25,10.73-1.65l-3.81-24.09v0h0a.64.64,0,0,1,0,.09h0s0,.12.05.19h0c0,.1,0,.22.09.35l.21.9c.08.29.16.62.25,1h0c0,.17.09.36.14.54.15.59.33,1.23.52,1.93,0,.12.07.25.1.38l.09.32.12.4s0,.07,0,.1,0,.15.07.23.05.16.07.24l.15.51c.24.82.5,1.67.77,2.54l.09.27.39,1.19c0,.14.09.28.14.42.12.36.25.72.38,1.08l.09.27c.32.9.66,1.78,1,2.64,0,.08.07.17.11.25l.27.65a2.72,2.72,0,0,0,.11.25c1.2,2.74,2.53,5,3.91,6.12l.12.09a2.8,2.8,0,0,0,1,.5l.23.05a2.13,2.13,0,0,0,.9-.08s3.81.31,5.72-13.36c0,0,8.9,1-4.45,21.62,0,0-2.86,2.86.95,6,0,0,11.48,14.63,24.18,13.67,0,0,7-.63,11.11,2.87C760.44,340.64,748.68,340.32,750,344.45Z" fill="#fff" opacity="0.3"/><path d="M645.89,288.9l-1,22.25c-15,7.42-12.25-5.49-12.25-5.49,5.09-21,2.23-21.3,2.23-21.3-2.23,15.58-8,24.8-8,24.8-6.36,1.27-7.63-14-7.63-14-6.36,17.49,7.31,25.75,7.31,25.75-6.68,2.55-14.62,12.4-14.62,12.4-8.59,7-25.76,6.36-25.76,6.36l12.72,3.82c-14.31,10.17-8.58,31.16-8.58,31.16,7.94-24.17,17.48-23.53,17.48-23.53-7.31,28-4.45,39.42-4.45,39.42,2.54-13,14-38.15,14-38.15,9.22-26.71,23.85-26.71,23.85-26.71-2.23,10.81.63,40.06.63,40.06a27.69,27.69,0,0,1,.29,10.32,12.57,12.57,0,0,1-9.67,10.08c-8.08,1.75-12.92,8.85-12.92,8.85-9.28,5.09-17.44,14.95-17.44,14.95-7.63,9.22-14,12.4-14,12.4C562.69,433.79,577,368,577,368c5.06-34.21,14.63-57.3,22.23-71.18a81.42,81.42,0,0,1,24.68-27.69c13.25-9.27,16.84-5.85,16.84-5.85S647.38,266.42,645.89,288.9Z" fill="#8100f2"/><rect x="528.35" y="269.1" width="67.08" height="9.86" rx="4.93" fill="#5b5982"/><rect x="528.35" y="250.98" width="84.25" height="9.86" rx="4.93" fill="#5b5982"/><circle cx="559.19" cy="327.28" r="7.63" fill="#8100f2"/><circle cx="800.98" cy="269.26" r="4.93" fill="#8100f2"/><rect x="110.9" y="329.83" width="28.3" height="22.26" rx="2.28" fill="#5b5982"/><rect x="159.22" y="385.78" width="47.05" height="23.21" fill="#fff" opacity="0.5"/><rect x="171.3" y="389.92" width="22.57" height="2.86" fill="#fff" opacity="0.5"/><rect x="164.31" y="348.27" width="38.47" height="17.17" rx="4.45" fill="#8100f2"/><rect x="164.31" y="348.27" width="38.47" height="17.17" rx="4.6" fill="#fff" opacity="0.5"/></svg>